<svg xmlns="http://www.w3.org/2000/svg" viewBox="0 0 630.04 676.26">
    <defs>
        <style>
            .cls-1 {
                fill: #fd790f;
            }

            .cls-2 {
                fill: #fb7c15;
            }

            .cls-3 {
                fill: #fb7a12;
            }

            .cls-4 {
                fill: #fb7b13;
            }

            .cls-5 {
                fill: #fc7a10;
            }
        </style>
    </defs>
    <g id="Capa_2" data-name="Capa 2">
        <g id="Capa_1-2" data-name="Capa 1">
            <path class="cls-1"
                d="M340.05,467.33c-31.65,0-63.31.2-95-.05-32.13-.25-60.73-11-85.94-30.65-21-16.36-35.89-37.38-45.31-62.12a127.45,127.45,0,0,1-8.72-45.26q-.12-93,0-185.94c.06-39.86,14.37-73.93,42.56-102.05C169.2,19.8,195.38,7.14,225.15,1.84A103.86,103.86,0,0,1,243,.39C306.51.3,370-.56,433.46.61,493.71,1.72,536.79,31.29,562.8,85.38c8.81,18.32,12.28,38.08,12.25,58.47-.07,60,.13,120-.07,179.94-.15,46.11-18.47,84-54.22,112.81-25.23,20.34-54.58,30.68-87.24,30.72Q386.78,467.4,340.05,467.33Zm-4.9-405.76c4.36-8.06,4.87-15.94,1.44-23.23C332.23,29,324.34,23.68,313.78,23.4c-11-.3-19.2,4.78-24.2,14.36-4.81,9.24-2.95,19.63,4.4,27.53,2.19,2.34,2.22,3.08-1.08,4a152.63,152.63,0,0,0-49,24.41c-32.56,24.43-54.37,56.14-63.33,96.3-4.67,20.92-4.57,41.81-1.27,62.82.52,3.37,2,4.69,5.81,3.79,6.43-1.52,13-2.35,19.56-3.4,14.4-2.32,28.81-4.55,43.19-6.9,17.66-2.89,35.3-5.93,53-8.8,19.13-3.11,38.28-6.06,57.42-9.14q28-4.51,55.89-9.14c14.89-2.43,29.78-4.9,44.68-7.29,14.23-2.29,28.46-4.69,42.74-6.68,7.94-1.1,8-.77,6.32-8.65-.18-.81-.47-1.6-.6-2.41-3.58-22.13-12.53-42.07-25-60.46a160.83,160.83,0,0,0-47.09-45.54,168.1,168.1,0,0,0-68.91-25.16A177.78,177.78,0,0,0,335.15,61.57Zm-74.6,334.15,20.33-21.83a10.82,10.82,0,0,1,5.45-3c12.27-3.38,24.61-6.74,35.12-14.47a3.42,3.42,0,0,1,2.27-.68c9.3,1.46,18.56-.16,27.83-.21A148.33,148.33,0,0,0,381.14,352c13.59-2.83,27.13-5.9,40.74-8.6,15.1-3,30.26-5.66,45.39-8.51a12.58,12.58,0,0,0,7.68-4.19c2.36-2.83,2.19-5.22-1-7.41s-6.67-2.68-10.4-2.68q-114.21,0-228.41,0a10.49,10.49,0,0,0-6.49,1.82c-12.45,8.77-15.5,18.41-9.31,32.68,1.47,3.4.78,5.34-1.24,7.78-5.34,6.45-10.71,12.89-15.77,19.56-4.19,5.52-8.51,9.92-16.27,6.9-1.31-.51-3.13.25-4.44-.27-3.28-1.3-5.59,0-8.11,1.93-9,7-18.06,13.8-27.13,20.65-1.88,1.41-2.16,2.65-.25,4.34,4.09,3.59,7.95,7.46,12.1,11,18.63,15.79,40.55,24.59,64.11,29.84,2.09.47,3.54-.12,5.32-1.53,19.77-15.68,39.68-31.17,59.54-46.74,4.48-3.51,8.91-7.09,13.91-11.08C287.44,394.86,274.48,396.82,260.55,395.72Zm82.81-127.44q-102.23,0-204.45,0c-3.12,0-6.72-.16-7.26,3.53-.58,3.93-2.06,8.39,2.86,11.52a208.51,208.51,0,0,1,18,13,13.51,13.51,0,0,0,9,3.05q104-.11,207.95-.06,77.73,0,155.46,0c2.06,0,4.16.46,6.18-1.08,6.7-5.14,13.6-10,20.39-15.07,3-2.22,4.64-8.4,3.06-11.92s-4.85-2.89-7.81-2.89Z" />
            <path class="cls-2"
                d="M206.75,619.69c0,16.88-.2,33.78.12,50.68.09,4.73-1.36,6.14-5.85,5.8a76.48,76.48,0,0,0-12.48,0c-4.51.39-5.51-1.4-5.47-5.68.28-26.63.28-53.27.35-79.9,0-15.65.09-31.3,0-47,0-3,.83-4.89,3.41-6.54,22.68-14.57,46.75-18.71,72.59-10,19.42,6.57,33.23,25.91,33.82,46.35.63,21.72-7.47,38.89-27.15,48.43-19.33,9.36-39.3,9.92-58.37-2A2.33,2.33,0,0,0,206.75,619.69Zm-.05-47.27h0c0,6.66,0,13.33,0,20a7.43,7.43,0,0,0,2.21,5.75c10.41,10.74,30.47,14.12,43.88,7.71,19.37-9.25,23.07-36.59,9.31-52.32s-39.16-13.07-53.4-5.29c-2,1.08-2,2.77-2,4.67C206.74,559.43,206.7,565.93,206.7,572.42Z" />
            <path class="cls-3"
                d="M587.68,578.76c-12.5,0-25,.09-37.48,0-4-.05-4.59,1.12-3.7,5,5,21.94,25.69,29.12,44.49,24.42a45.09,45.09,0,0,0,20.54-11.54c1.71-1.64,2.5-1.77,4.3,0a108.56,108.56,0,0,0,10.6,9c2.51,1.94,2.25,3.35,0,5.27-11,9.42-23.47,15.48-37.84,17-15.9,1.7-31.29-.4-44.72-9.78-15.87-11.1-21.7-27-21.43-46a49.13,49.13,0,0,1,39.37-47.84c23.39-4.87,48.29.4,61.73,24.4,4.41,7.88,6,16.38,6.46,25.27.2,3.83-1.25,4.88-4.87,4.84C612.66,578.66,600.17,578.76,587.68,578.76Zm-11.76-17.54c8.49,0,17-.19,25.47.07,4.67.15,4.39-1.55,2.77-4.86-3.67-7.5-9.76-11.77-17.47-14.47-14.84-5.19-32.31,1.94-38.65,15.81-1.48,3.24-.48,3.54,2.41,3.5C558.94,561.16,567.43,561.23,575.92,561.22Z" />
            <path class="cls-3"
                d="M365.79,578.74c-12.16,0-24.32.13-36.48-.07-4-.07-5.57.28-4.62,5.11a32.51,32.51,0,0,0,28.71,25.51c13.88,1.14,25.8-2.78,35.78-12.45,1.53-1.49,2.53-2.32,4.48-.51,3.64,3.36,7.48,6.51,11.32,9.64,1.93,1.58,2.25,2.71.1,4.55-16.53,14.14-35.42,20.06-57.1,17.11-15.25-2.07-28.33-8-37.48-20.74-17.82-24.75-12.74-64.69,18.19-78.46,21.14-9.41,42.19-8.63,61,5.87,13,10,18.15,24.43,18.47,40.65.06,3.25-1.68,3.82-4.44,3.8-12.66-.07-25.32,0-38,0Zm-11.32-17.51c8.32,0,16.65-.23,25,.09,4.81.18,4.37-2.13,2.93-5A27.48,27.48,0,0,0,364.83,542c-14.64-4.3-31.61.47-38.71,15.72-1.45,3.11-.64,3.59,2.37,3.54C337.15,561.14,345.81,561.23,354.47,561.23Z" />
            <path class="cls-4"
                d="M153,566.09c-1.71-9.36-2-18.42-11.94-22-5.29-1.91-10.78-3.58-16.51-2.67-8,1.27-16,2.66-23.21,6.81-2.28,1.32-3.42,1.06-4.52-1.46-1.39-3.18-3.27-6.13-4.92-9.2-3-5.5-3-5.52,2.61-7.83,16.86-7,34.17-9.51,52-4.55,15.23,4.23,28.07,15.67,27.38,34.63-.63,17.14-.19,34.31-.05,51.46,0,3.19-.75,5.05-3.87,6.57-20.73,10.09-42.25,14.35-64.61,7.16C86,618.78,75,603.72,79.16,582.55c2.28-11.57,10.66-18.72,21-22.74,13.81-5.36,28.08-6.37,42.26-.57C146.13,560.74,149.23,563.16,153,566.09Zm-2,27.92c0-10.13-.26-11.49-5.41-14.65-10.64-6.55-21.83-9.06-34.09-4.39S96,594.8,106.09,603.33c10.38,8.77,22.63,7.61,34.5,4.59C151.19,605.22,151,604.59,151.05,594Z" />
            <path class="cls-5"
                d="M521.31,525.25c-15.65,13.86-30.43,27.06-45.35,40.08-2.73,2.39-2.63,3.77-.18,6.4,15.29,16.44,30.37,33.06,45.5,49.65,1.06,1.17,2.57,2.12,2.6,4.37-8.53,0-17-.1-25.4.06-2.63.05-3.91-1.59-5.29-3.16-10.8-12.26-21.46-24.65-32.41-36.77-1.49-1.65-2.51-5.32-5.95-3.93-3.83,1.54-5.9,4.25-5.68,8.87.47,10.14.28,20.31.75,30.45.17,3.71-1.1,4.65-4.47,4.5a112.44,112.44,0,0,0-14,0c-3.85.3-4.72-1-4.69-4.69.17-24.64.1-49.29.11-73.94,0-13.33.11-26.65-.08-40-.05-3.48.95-4.75,4.44-4.58,4.65.23,9.33.28,14,.05,3.39-.17,4.15,1.18,4.11,4.35-.24,18-.28,36-.37,53.94,0,.92-.42,2,.76,3,5.73-5.37,11.46-10.77,17.23-16.13q11.07-10.31,22.19-20.58c1.11-1,2.12-2,3.84-2C502.09,525.29,511.2,525.25,521.31,525.25Z" />
            <path class="cls-5"
                d="M65.31,555.71c0,22-.11,44,.11,65.94,0,3.52-1,4.24-4.15,4.11-5.32-.21-10.67-.3-16,0-3.72.23-4.29-1.28-4.28-4.59.11-43.3,0-86.59.21-129.89,0-5-1.06-6.47-6.19-6.24-10.3.46-20.64,0-31,.19-3,0-4.21-.75-4-3.91.24-4.49.13-9,0-13.48,0-2.55.92-3.49,3.53-3.49q50,.11,99.92,0c2.55,0,3.58.81,3.48,3.46-.16,4.49-.22,9,0,13.48.17,3.14-1,4-4,3.93-11-.13-22,.1-33-.15-3.69-.08-4.79.86-4.76,4.68.19,22,.09,44,.09,65.94Z" />
        </g>
    </g>
</svg>