<svg width="201" height="253" viewBox="0 0 201 253" fill="none" xmlns="http://www.w3.org/2000/svg">
    <path
        d="M100.292 0.77832C61.498 0.77832 29.937 32.3393 29.937 71.1333C29.937 89.9613 37.362 111.326 49.799 128.284C63.866 147.465 81.799 158.029 100.292 158.029C118.786 158.029 136.718 147.466 150.786 128.284C163.223 111.326 170.648 89.9613 170.648 71.1333C170.648 32.3393 139.086 0.77832 100.292 0.77832ZM100.292 143.029C86.896 143.029 72.901 134.422 61.895 119.413C51.435 105.151 44.937 86.6513 44.937 71.1333C44.937 40.6103 69.769 15.7783 100.292 15.7783C130.815 15.7783 155.647 40.6103 155.647 71.1333C155.648 102.824 129.584 143.029 100.292 143.029Z" />
    <path
        d="M18.5289 244.532C19.3489 221.563 29.7469 200.029 47.3529 185.078C54.3489 179.137 64.5649 178.488 72.7749 183.463C81.6429 188.837 90.9019 191.562 100.295 191.562C109.686 191.562 118.942 188.838 127.806 183.467C136.007 178.497 146.196 179.122 153.159 185.022C170.778 199.952 181.235 221.548 182.054 244.534L196.193 234.218C192.954 210.735 181.182 189.107 162.856 173.578C150.966 163.504 133.756 162.322 120.032 170.639C107.058 178.5 93.5259 178.499 80.5489 170.635C66.8089 162.308 49.5679 163.519 37.6429 173.645C19.3329 189.194 7.60793 210.76 4.37793 234.208L18.5289 244.532Z" />
</svg>