<svg fill="none" height="25" viewBox="0 0 25 25" width="25" xmlns="http://www.w3.org/2000/svg"><path d="m11.742 24.9748c-1.5238-.1604-2.94234-.5865-4.25562-1.2782-1.31329-.6917-2.45113-1.5739-3.41354-2.6466-.9624-1.0726-1.7193-2.3007-2.27067-3.6841-.55138-1.3835-.827072-2.8471-.827072-4.3909 0-3.10778 1.027572-5.79948 3.082702-8.07514 2.05514-2.27566 4.62657-3.58391 7.7143-3.924762v2.405982c-2.42607.34085-4.43109 1.41853-6.01505 3.23305-1.58396 1.81451-2.37594 3.93477-2.37594 6.36087 0 2.426.79198 4.5463 2.37594 6.3608s3.57895 2.8922 5.98495 3.233zm1.203-5.9548-6.04509-6.0751 1.71429-1.7143 3.1278 3.1278v-7.36834h2.406v7.36834l3.0978-3.0977 1.7143 1.7443zm1.203 5.9548v-2.406c.8622-.1203 1.6893-.3509 2.4812-.6917.792-.3409 1.5289-.7719 2.2106-1.2932l1.7443 1.7443c-.9423.7419-1.9549 1.3383-3.0376 1.7895-1.0827.4511-2.2155.7368-3.3985.8571zm4.7519-19.60878c-.7017-.5213-1.4486-.95237-2.2406-1.29322-.792-.34084-1.619-.57142-2.4812-.69172v-2.405982c1.183.120302 2.3158.406012 3.3985.857132s2.0852 1.04761 3.0075 1.78945zm3.3684 15.21788-1.6842-1.7143c.5213-.6817.9424-1.4185 1.2632-2.2105s.5413-1.619.6616-2.4812h2.4662c-.1604 1.183-.4612 2.3208-.9023 3.4135-.4411 1.0928-1.0426 2.0902-1.8045 2.9925zm.2406-8.8119c-.1203-.8622-.3408-1.6892-.6616-2.48121-.3208-.79197-.7419-1.52881-1.2632-2.2105l1.6842-1.71427c.7619.90225 1.3735 1.89973 1.8346 2.99245.4612 1.09271.7519 2.23053.8722 3.41353z" fill="#fff"/></svg>