<svg width="800" height="800" viewBox="0 0 800 800" fill="none" xmlns="http://www.w3.org/2000/svg">
<path d="M376.5 0.165662C373.8 0.365662 364.1 1.46566 355 2.66566C240 17.0657 134.3 84.8657 72.7 183.566C37.9 239.366 18.2 300.166 14.1 364.566C13 381.766 14.2 417.566 16.4 435.766C23 488.466 37.9 533.666 64.5 582.066L67.3 587.166L62.3 602.066C45 653.066 32.1 691.066 17.1 735.466C6.3 767.166 0 787.266 0 789.766C0 795.266 4.3 799.566 9.8 799.566C12 799.566 29.2 794.666 49.6 788.166C69.3 781.866 99.9 772.166 117.5 766.566C135.1 760.966 154.2 754.866 160 753.066C165.8 751.266 181.9 746.166 195.9 741.666L221.2 733.666L233.3 739.666C274.3 760.266 327.9 774.966 374.6 778.466C424.2 782.266 472.1 777.366 517.7 763.966C578.3 746.166 633.2 714.766 677.4 672.666C695.3 655.466 707.4 642.266 719.3 626.766C757 577.366 781.9 522.566 793.4 462.966C798.7 435.566 799.5 426.166 799.4 392.566C799.4 358.766 798.3 345.366 793.4 318.566C765.1 165.166 647.4 43.4657 493.3 8.56566C465.8 2.36566 448 0.465662 413 0.0656619C395.7 -0.0343381 379.3 -0.0343381 376.5 0.165662ZM435 82.5657C462.2 84.9657 493.7 92.3657 521.3 102.966C549.4 113.766 586.2 135.966 610 156.466C645.2 186.766 674.8 227.266 693.3 270.666C716 323.866 723.2 387.066 713 443.066C695.2 540.566 631 624.366 541.5 667.166C498 687.866 454.8 697.566 404.9 697.566C349.1 697.566 294.5 682.166 245.7 652.666C236.7 647.266 233 645.566 230.2 645.566C227.1 645.566 190.5 656.766 137.2 674.066C129.9 676.366 124.1 677.866 124.3 677.166C124.5 676.566 132.2 653.766 141.4 626.566C157.1 579.866 158 576.866 156.9 573.566C156.2 571.666 154.4 568.466 152.9 566.466C146.4 558.166 135.1 538.966 127.4 523.066C117.9 503.366 112.5 489.266 107.5 471.066C89.5 405.266 93.4 337.166 118.7 275.066C152.9 191.066 221.7 126.666 308.5 97.4657C329.3 90.4657 358.2 84.2657 378 82.6657C392 81.4657 421.9 81.4657 435 82.5657Z" fill="white"/>
<path d="M280.5 208.166C259.3 211.966 247.9 216.866 238.8 225.866C226.8 237.666 218.3 253.566 213.3 273.066C209.9 286.766 209 310.766 211.4 325.166C213.4 336.666 219.3 355.166 224.9 367.066C239.5 398.266 281.4 453.866 312.8 483.666C349.3 518.466 383.5 540.566 425.5 556.366C479.8 576.866 516.3 582.066 544.6 573.466C568 566.366 594.5 546.466 602.5 530.266C608 518.866 611.1 505.266 611.7 490.066C612.5 468.666 612.5 468.666 570.5 448.366C534.5 430.866 527.6 427.766 519 424.866C505.1 420.166 496 423.266 487.2 435.466C484.4 439.166 477.5 447.866 471.8 454.566C466.1 461.366 460.6 467.966 459.5 469.366L457.4 471.766L448.5 468.066C430.8 460.766 409.8 447.866 392.5 433.466C370.4 415.066 344 386.266 330.6 365.866L327.8 361.766L337.2 350.866C348.5 337.866 352.1 332.666 356.3 323.766C360.4 314.966 360.5 306.566 356.8 298.466C355.4 295.466 349.8 282.466 344.5 269.566C339.1 256.666 332.7 241.266 330.3 235.266C323.1 218.166 318.2 211.566 309.6 207.866C305.9 206.166 290.7 206.366 280.5 208.166Z" fill="white"/>
</svg>
