<svg width="80" height="81" viewBox="0 0 80 81" fill="none" xmlns="http://www.w3.org/2000/svg">
<path d="M8.68464 0.12222C4.27996 1.00503 0.758105 4.64898 0.0819077 8.99731C0.00677474 9.52324 -0.0120085 17.5813 0.00677474 40.4123L0.0349496 71.1229L0.297915 72.0151C0.842629 73.8747 1.80997 75.5182 3.15297 76.8612C4.33631 78.0445 5.71688 78.9086 7.29468 79.4345C9.05091 80.0262 8.31836 79.998 24.6974 79.998H39.6206V70.1086C39.6206 64.6803 39.6488 58.2376 39.6864 55.7958L39.7427 51.3629L35.7043 51.3348L31.6753 51.3066L31.2903 51.053C31.0555 50.9027 30.8301 50.6398 30.708 50.3862C30.5108 49.973 30.5108 49.9166 30.5296 44.8545L30.5577 39.7361L30.8113 39.4074C31.3372 38.7218 31.3091 38.7218 35.695 38.6936L39.6019 38.6655L39.6488 33.1056C39.6864 27.1231 39.7146 26.7475 40.2405 24.6625C40.5692 23.3477 40.8791 22.5306 41.5084 21.2909C43.1331 18.1447 45.8191 15.8814 49.294 14.745C51.6607 13.9749 52.6093 13.881 58.3757 13.881H63.1279L63.5411 14.1157C63.7947 14.266 64.0201 14.5102 64.161 14.7544C64.3676 15.1488 64.3676 15.177 64.3676 19.3751C64.3676 21.6948 64.3394 23.714 64.3018 23.8549C64.2079 24.1836 63.8041 24.6531 63.4378 24.8504C63.1842 24.9912 62.7053 25.0194 59.6248 25.0664C55.7649 25.1227 55.5582 25.1509 54.3655 25.7332C53.3042 26.2497 52.6281 27.1231 52.2336 28.4849C52.0927 28.9827 52.0739 29.6401 52.0364 33.8569L52.0082 38.6655L57.7653 38.6936C64.1328 38.7218 63.8135 38.6936 64.3488 39.3323C64.8372 39.9051 64.8372 39.9145 64.2173 45.1551C63.5881 50.5177 63.5693 50.6022 62.8837 51.053L62.4986 51.3066L57.2581 51.3348L52.0176 51.3629V65.6852V80.0074L61.4844 79.9698C70.8948 79.9416 70.9417 79.9416 71.7212 79.735C74.6984 78.9461 77.0557 77.1711 78.5959 74.5509C78.9997 73.8653 79.4975 72.6537 79.7417 71.7146L79.9577 70.9351L79.9859 40.4593C80.0046 18.295 79.9859 9.77681 79.9107 9.24149C79.3003 4.98708 76.2668 1.54035 72.0218 0.291269L71.1296 0.0283032L40.2311 0.00952C14.3854 0.000128371 9.22935 0.0189116 8.68464 0.12222Z" fill="#64FFDA"/>
</svg>
