<svg width="81" height="80" viewBox="0 0 81 80" fill="none" xmlns="http://www.w3.org/2000/svg">
<path d="M11.8676 0.223756C6.19367 1.3648 1.34815 6.24158 0.26963 11.9155C-0.0898766 13.7756 -0.0898766 66.2322 0.26963 68.0923C1.37941 73.9694 6.50628 78.94 12.3834 79.8622C13.1962 79.9873 15.9316 80.0185 21.2148 79.9873C28.5925 79.9404 28.8895 79.9247 29.2959 79.6277C30.1712 78.9713 30.2024 78.7212 30.2024 73.4224V68.5768L29.1552 68.7019C27.4983 68.9207 23.872 68.8269 22.559 68.5456C21.9182 68.4205 20.9647 68.0923 20.4489 67.8578C18.5732 66.9669 17.5728 65.8727 16.6037 63.6063C15.4627 61.0116 13.8996 58.9171 12.4303 58.0574C11.8051 57.6822 10.664 56.5099 10.664 56.2286C10.664 56.1504 10.9298 55.9785 11.2424 55.8534C12.1021 55.4939 13.3056 55.6815 14.8374 56.4318C16.4162 57.2133 17.4947 58.2137 18.6826 60.0268C19.7299 61.6368 21.0272 62.8873 22.3089 63.5281C23.2155 63.9814 23.3093 63.997 25.5132 63.997C27.7484 63.997 27.9829 63.9658 29.6866 63.3405C30.2806 63.1217 30.3431 63.0592 30.4369 62.4183C30.6557 60.8865 31.6405 58.8545 32.5314 58.073C32.7033 57.9011 32.8597 57.7291 32.8597 57.6666C32.8597 57.6041 32.3907 57.5103 31.8124 57.4478C25.6226 56.8225 20.3395 54.1028 17.7604 50.2108C16.041 47.6317 15.0406 44.2867 14.6968 40.0664C14.4311 36.6589 14.8218 33.9548 15.916 31.4539C16.4005 30.3598 17.5728 28.531 18.2137 27.8432L18.6982 27.343L18.3387 25.9675C17.651 23.3728 17.7448 20.825 18.6201 17.9802L19.0421 16.636L19.808 16.5891C20.8553 16.511 21.9651 16.7767 23.9345 17.5738C25.9978 18.4023 27.5296 19.1682 28.9363 20.0748L30.0305 20.7938L31.2497 20.4812C36.783 19.0744 43.3166 19.0744 48.8342 20.4812L50.0534 20.7781L51.3351 19.9653C54.3675 18.074 58.1814 16.5578 59.9633 16.5578H60.9793L61.4482 18.074C62.3704 21.0439 62.4486 23.3259 61.7608 25.9832L61.4013 27.343L61.8859 27.8432C62.5424 28.531 63.699 30.3598 64.1992 31.5008C65.2777 33.9236 65.6685 36.7058 65.4028 40.0664C65.0276 44.7244 63.9022 48.1788 61.839 50.8985C59.1974 54.3529 54.0862 56.8225 48.3028 57.4321C47.7088 57.4947 47.2399 57.5728 47.2399 57.6197C47.2399 57.6666 47.5056 57.9948 47.8339 58.37C48.5216 59.1515 49.1625 60.3863 49.5376 61.6837C49.7564 62.4652 49.819 63.7001 49.8815 70.5619C49.9753 79.1432 49.9753 79.0963 50.8193 79.659C51.1945 79.9247 51.8822 79.9404 59.0411 79.9873C67.3879 80.0341 68.1225 79.9873 70.217 79.2213C75.0782 77.4394 78.8921 73.016 79.8299 68.0923C80.1894 66.2322 80.1894 13.7756 79.8299 11.9155C78.8921 7.00748 75.2658 2.77156 70.3577 0.848984C68.0913 -0.0419663 69.2479 -0.0107049 39.9091 0.0049258C17.9167 0.0205565 12.7273 0.0518179 11.8676 0.223756Z" fill="#64FFDA"/>
<path d="M14.1028 57.0101C14.1028 57.4009 14.3998 57.6666 14.8374 57.6666C15.322 57.6666 15.4939 57.2133 15.1188 56.9476C14.6811 56.635 14.1028 56.6663 14.1028 57.0101Z" fill="#64FFDA"/>
<path d="M15.8066 58.2293C15.4783 58.62 15.9316 59.3078 16.5256 59.3078C17.1352 59.3078 17.2133 58.8858 16.6975 58.37C16.2442 57.9167 16.0879 57.8854 15.8066 58.2293Z" fill="#64FFDA"/>
<path d="M17.5103 60.1832C16.9007 60.527 17.4947 61.8087 18.2137 61.6993C18.7139 61.6368 18.7608 60.8709 18.3075 60.3863C17.9167 59.9643 17.8855 59.9643 17.5103 60.1832Z" fill="#64FFDA"/>
<path d="M19.2922 62.5434C18.9796 62.856 19.089 63.4031 19.5111 63.747C20.0112 64.1377 20.2457 64.1534 20.5739 63.8251C20.9178 63.4812 20.8866 63.1843 20.4333 62.7466C20.0269 62.3246 19.5892 62.2464 19.2922 62.5434Z" fill="#64FFDA"/>
<path d="M21.965 64.2471C21.4179 64.8098 21.9963 65.4819 23.0123 65.4819C23.3718 65.4819 23.4968 65.4038 23.575 65.0755C23.6375 64.8098 23.5906 64.591 23.4499 64.4503C23.1373 64.1221 22.1995 64.0126 21.965 64.2471Z" fill="#64FFDA"/>
<path d="M28.4205 64.4347C28.2329 64.5754 28.1548 64.7942 28.2016 65.0912C28.2642 65.6383 28.7175 65.7789 29.4365 65.482C29.921 65.2788 30.0461 64.7629 29.7022 64.4191C29.4521 64.169 28.7644 64.1846 28.4205 64.4347Z" fill="#64FFDA"/>
<path d="M25.2162 64.9193C25.1068 65.0443 25.0443 65.31 25.0756 65.5132C25.1224 65.8258 25.2006 65.8727 25.8883 65.8727C26.7637 65.8727 27.1388 65.5445 26.8262 65.0443C26.5917 64.6848 25.482 64.591 25.2162 64.9193Z" fill="#64FFDA"/>
</svg>
