<svg width="81" height="80" viewBox="0 0 81 80" fill="none" xmlns="http://www.w3.org/2000/svg">
<path fill-rule="evenodd" clip-rule="evenodd" d="M5.07537 0.566519C2.95064 1.22919 1.22756 2.98778 0.585848 5.14873C-0.189397 7.75857 -0.19792 72.2107 0.576259 74.7836C1.25491 77.0387 2.96165 78.7561 5.17801 79.4142C7.78784 80.1894 72.24 80.1979 74.8129 79.4237C77.068 78.7451 78.7854 77.0383 79.4434 74.822C80.2265 72.1859 80.2265 7.78485 79.4434 5.14873C78.7854 2.93238 77.068 1.22564 74.8129 0.546986C72.3487 -0.194521 7.45793 -0.176409 5.07537 0.566519ZM21.4965 9.39997C26.9843 11.693 28.479 19.15 24.2899 23.3387C22.0658 25.5633 18.8004 26.4227 15.7772 25.5796C13.607 24.9745 10.7042 22.159 10.083 20.057C8.377 14.2826 12.2014 8.97204 18.0969 8.92836C19.3238 8.91913 20.8537 9.13149 21.4965 9.39997ZM63.181 30.0105C65.8346 31.2222 68.2796 33.69 69.5272 36.4153C71.2851 40.2546 71.5021 42.2365 71.6981 56.2321C71.8618 67.9226 71.8203 69.375 71.2989 70.1709C70.7176 71.0576 70.7083 71.0591 64.9823 71.0591C60.1444 71.0591 59.1457 70.9671 58.5981 70.4713C57.9941 69.9248 57.9486 69.0703 57.9486 58.284C57.9486 45.606 57.7629 44.1045 55.9538 42.1655C53.3309 39.3543 48.4567 39.6192 46.136 42.6989C44.246 45.2068 44.0986 46.3418 44.0986 58.3853C44.0986 67.8526 44.0176 69.5963 43.5457 70.2696C43.0148 71.0282 42.7754 71.0591 37.4478 71.0591C32.7864 71.0591 31.7991 70.9653 31.2533 70.4713C30.6389 69.9155 30.6041 68.8257 30.6091 50.3178C30.6123 39.5567 30.7319 30.5763 30.8754 30.3614C31.5178 29.3997 32.8695 29.154 37.5216 29.154C42.1802 29.154 42.3869 29.1856 43.2268 30.0258C43.8791 30.6778 44.0986 31.2776 44.0986 32.408V33.9184L45.6079 32.4613C48.5839 29.5876 51.0893 28.8003 56.8832 28.9171C60.5176 28.9906 61.2108 29.1106 63.181 30.0105ZM24.0499 30.0258L24.9217 30.8973V50.1889C24.9217 67.0745 24.8528 69.5789 24.3688 70.2696C23.8371 71.0292 23.6017 71.0591 18.1743 71.0591C12.7468 71.0591 12.5114 71.0292 11.9798 70.2696C11.4957 69.5789 11.4268 67.0745 11.4268 50.1889V30.8973L12.2987 30.0258C13.1414 29.1827 13.3349 29.154 18.1743 29.154C23.0136 29.154 23.2071 29.1827 24.0499 30.0258Z" fill="#64FFDA"/>
</svg>
