<svg width="83" height="82" viewBox="0 0 83 82" fill="none" xmlns="http://www.w3.org/2000/svg">
<path fill-rule="evenodd" clip-rule="evenodd" d="M6.07537 1.56652C3.95064 2.22919 2.22756 3.98778 1.58585 6.14873C0.810603 8.75857 0.80208 73.2107 1.57626 75.7836C2.25491 78.0387 3.96165 79.7561 6.17801 80.4142C8.78784 81.1894 73.24 81.1979 75.8129 80.4237C78.068 79.7451 79.7854 78.0383 80.4434 75.822C81.2265 73.1859 81.2265 8.78485 80.4434 6.14873C79.7854 3.93238 78.068 2.22564 75.8129 1.54699C73.3487 0.805479 8.45793 0.823591 6.07537 1.56652ZM22.4965 10.4C27.9843 12.693 29.479 20.15 25.2899 24.3387C23.0658 26.5633 19.8004 27.4227 16.7772 26.5796C14.607 25.9745 11.7042 23.159 11.083 21.057C9.377 15.2826 13.2014 9.97204 19.0969 9.92836C20.3238 9.91913 21.8537 10.1315 22.4965 10.4ZM64.181 31.0105C66.8346 32.2222 69.2796 34.69 70.5272 37.4153C72.2851 41.2546 72.5021 43.2365 72.6981 57.2321C72.8618 68.9226 72.8203 70.375 72.2989 71.1709C71.7176 72.0576 71.7083 72.0591 65.9823 72.0591C61.1444 72.0591 60.1457 71.9671 59.5981 71.4713C58.9941 70.9248 58.9486 70.0703 58.9486 59.284C58.9486 46.606 58.7629 45.1045 56.9538 43.1655C54.3309 40.3543 49.4567 40.6192 47.136 43.6989C45.246 46.2068 45.0986 47.3418 45.0986 59.3853C45.0986 68.8526 45.0176 70.5963 44.5457 71.2696C44.0148 72.0282 43.7754 72.0591 38.4478 72.0591C33.7864 72.0591 32.7991 71.9653 32.2533 71.4713C31.6389 70.9155 31.6041 69.8257 31.6091 51.3178C31.6123 40.5567 31.7319 31.5763 31.8754 31.3614C32.5178 30.3997 33.8695 30.154 38.5216 30.154C43.1802 30.154 43.3869 30.1856 44.2268 31.0258C44.8791 31.6778 45.0986 32.2776 45.0986 33.408V34.9184L46.6079 33.4613C49.5839 30.5876 52.0893 29.8003 57.8832 29.9171C61.5176 29.9906 62.2108 30.1106 64.181 31.0105ZM25.0499 31.0258L25.9217 31.8973V51.1889C25.9217 68.0745 25.8528 70.5789 25.3688 71.2696C24.8371 72.0292 24.6017 72.0591 19.1743 72.0591C13.7468 72.0591 13.5114 72.0292 12.9798 71.2696C12.4957 70.5789 12.4268 68.0745 12.4268 51.1889V31.8973L13.2987 31.0258C14.1414 30.1827 14.3349 30.154 19.1743 30.154C24.0136 30.154 24.2071 30.1827 25.0499 31.0258Z" stroke="#64FFDA" stroke-width="2"/>
</svg>
