<svg width="81" height="80" viewBox="0 0 81 80" fill="none" xmlns="http://www.w3.org/2000/svg">
<path d="M6.14314 0.696131C3.72617 1.56259 1.12679 4.38999 0.442747 6.85256C0.0323189 8.35746 -0.0588874 17.0221 0.0323189 41.2829L0.169128 73.6612L1.44602 75.5765C2.13006 76.6254 3.54376 78.0391 4.59263 78.7231L6.50797 80H40.0719H73.6358L75.5511 78.7231C76.6 78.0391 78.0137 76.6254 78.6977 75.5765L79.9746 73.6612L80.1114 41.1461C80.2026 20.4423 80.0658 7.99263 79.7922 6.89816C79.1538 4.618 76.7824 1.83621 74.5479 0.83294C72.7693 0.0120838 70.854 -0.0335193 40.2999 0.0120838C13.394 0.0120838 7.60244 0.148893 6.14314 0.696131ZM53.16 19.8038C54.3913 20.1687 55.805 20.8983 56.261 21.4C57.3555 22.5856 58.2219 22.54 61.3229 21.1719C62.7366 20.5335 63.9679 20.0319 64.1047 20.0319C64.6064 20.0319 63.5575 22.2208 62.3718 23.7713L61.0493 25.4586L63.1927 24.8202C65.8377 23.9993 65.6096 24.0449 65.6096 24.6378C65.6096 24.9114 64.4696 26.2795 63.1015 27.602C60.9125 29.7909 60.5933 30.2926 60.5933 31.8887C60.5933 34.1688 59.4988 39.4132 58.4499 41.967C55.7594 48.8074 50.2414 54.8727 43.9937 57.8825C36.9709 61.3027 28.7623 61.8956 21.6026 59.4786C18.0912 58.2929 14.2149 56.2864 14.8533 55.9671C15.0358 55.8303 16.3126 55.6935 17.6807 55.6479C21.0098 55.5567 23.7916 54.8727 26.7102 53.459L29.1727 52.2277L27.1662 51.498C22.1498 49.5827 18.4104 44.5208 21.7394 44.1103L22.9707 43.9735L21.2834 42.9702C20.3713 42.423 19.0488 41.1461 18.4104 40.1429C17.1791 38.2731 16.1302 34.8985 16.5863 34.1688C16.7231 33.9408 17.6807 34.0776 18.7752 34.4425L20.6905 35.1265L19.6417 34.1688C18.3648 32.9376 17.0423 30.2926 16.6319 28.1036C16.2214 25.9147 17.4527 21.4 18.4104 21.4C18.7752 21.4 19.0944 21.5824 19.0944 21.8104C19.0944 22.54 25.2509 27.4196 27.9414 28.7421C30.4496 30.0646 36.5604 31.8887 38.339 31.8887C39.023 31.8887 39.1598 31.5239 39.1598 29.6997C39.1598 25.4586 42.124 21.3544 46.3651 19.8038C48.5997 18.983 50.3782 18.983 53.16 19.8038Z" fill="#64FFDA"/>
</svg>
