<svg width="80" height="80" viewBox="0 0 80 80" fill="none" xmlns="http://www.w3.org/2000/svg">
<g clip-path="url(#clip0_105_376)">
<path d="M0 40V80H40H80V40V0H40H0V40ZM44.2188 12.2812C55.0781 13.9531 63.8594 21.6719 66.9688 32.3438C67.9531 35.7031 68.2656 40.5156 67.7188 43.9688C66.0781 54.5625 58.9688 63.0469 48.9062 66.4531C42.0938 68.7656 34.3438 68.2812 27.8906 65.1406L26.3281 64.3906L19.2188 66.2188C15.3125 67.2344 12.0938 68 12.0625 67.9375C12.0312 67.875 12.8594 64.7969 13.8906 61.125C14.9375 57.4375 15.7812 54.3125 15.7812 54.1719C15.7812 54.0469 15.5 53.4219 15.1719 52.7812C13.9531 50.4844 12.9844 47.5781 12.3906 44.4531C12.0625 42.6875 12.0156 37.8594 12.3281 35.9375C13.2656 29.8594 16 24.4531 20.3125 20.1562C26.625 13.8281 35.4062 10.9375 44.2188 12.2812Z" fill="#64FFDA"/>
<path d="M36.4062 17.1094C31.5781 17.9375 27.3124 20.0938 23.9062 23.4375C19.8593 27.4219 17.5468 32.3438 17.0156 38.0625C16.5781 42.9688 17.8281 48.0625 20.5156 52.3125L21.1406 53.3125L20.3906 55.9844C19.9843 57.4688 19.4843 59.2656 19.2812 59.9688C19.0312 60.8438 18.9843 61.25 19.1093 61.2188C19.2187 61.1719 21.0624 60.7031 23.2031 60.1562L27.1093 59.1719L28.5468 59.9844C32.1562 62.0469 35.8437 63 40.0781 63C47.8906 62.9844 55.0312 59.1406 59.2812 52.6719C60.4374 50.9219 60.7499 50.3125 61.4999 48.4844C63.5624 43.3594 63.6718 37.3906 61.7968 32.1875C60.5468 28.6875 58.6718 25.8281 55.8906 23.1719C52.4687 19.9219 48.3593 17.875 43.5937 17.0938C41.9531 16.8281 37.9999 16.8281 36.4062 17.1094ZM32.6718 27.0469C33.0624 27.25 35.8281 33.8281 35.7187 34.2656C35.6718 34.4531 35.0624 35.2656 34.3749 36.0625C33.6874 36.8594 33.1249 37.625 33.1249 37.7812C33.1249 38.3281 34.6093 40.4844 36.0781 42.0938C36.8281 42.9062 38.4374 44.1719 39.7343 45C40.9843 45.7812 43.0468 46.7188 43.5468 46.7188C43.7812 46.7188 44.1093 46.4219 44.6249 45.7344C46.2343 43.625 46.7187 43.125 47.1874 43.125C47.7968 43.125 53.9062 45.9688 54.1874 46.375C54.3593 46.6406 54.3749 46.8594 54.2187 47.6094C53.5156 50.9844 51.6874 52.75 48.3437 53.2812C44.9062 53.8281 37.8749 50.6875 33.6562 46.7031C29.5937 42.875 26.9218 38.9531 26.1406 35.625C25.8281 34.2812 25.8593 32.0469 26.1874 31.0312C26.7031 29.5 28.1562 27.5938 29.2499 27.0469C29.8437 26.75 30.0781 26.7188 31.1718 26.8125C31.8593 26.875 32.5312 26.9688 32.6718 27.0469Z" fill="#64FFDA"/>
</g>
<defs>
<clipPath id="clip0_105_376">
<rect width="80" height="80" rx="8" fill="white"/>
</clipPath>
</defs>
</svg>
