<svg width="180" height="180" viewBox="0 0 180 180" fill="none" xmlns="http://www.w3.org/2000/svg">
<rect width="180" height="180" rx="16" fill="#0A192F"/>
<path d="M80.4497 14.5924C77.8816 15.7825 76.5036 16.0331 74.6872 15.7825C73.3091 15.532 71.4927 15.5946 70.6158 15.7825V15.7825C69.9349 15.9658 69.7468 16.8425 70.2925 17.289L70.3652 17.3484C71.7432 18.4759 71.7432 18.4759 66.7949 18.2254C60.2181 17.9122 58.2763 17.7243 57.0236 17.0979C55.3324 16.4089 55.5203 19.9166 57.2741 22.1088V22.1088C57.793 22.7692 57.2679 23.7296 56.4319 23.6492L55.395 23.5495C53.3906 23.3616 51.261 22.6099 49.6324 21.5451C48.2544 20.6682 47.0017 19.9166 46.8138 19.9166C46.6259 19.9166 46.5006 21.1067 46.5006 22.6099C46.5006 25.178 47.5654 27.433 49.6324 29.1868C50.4467 29.8758 50.2588 30.0011 48.3797 29.6879C45.6863 29.2494 43.494 27.6835 41.6776 24.9275L41.3367 24.4532C40.8622 23.7931 39.8452 23.9203 39.5479 24.6769V24.6769C37.6688 29.6253 38.4831 34.0725 41.8655 37.2669L42.6217 37.9584C43.3494 38.6237 43.2544 39.7966 42.4292 40.3362V40.3362C41.5523 40.8999 39.4853 43.0922 37.7941 45.2845C34.6622 49.2932 30.7161 51.8613 27.6469 51.8613V51.8613C27.1484 51.8613 26.9283 52.489 27.3175 52.8004L27.7096 53.1141C28.5865 53.8031 30.5282 54.7426 32.0941 55.2437V55.2437C32.8373 55.4584 32.803 56.5229 32.0476 56.6893L31.2172 56.8723C28.5238 57.436 26.8953 57.436 25.392 56.9975C24.2645 56.6217 23.325 56.4965 23.325 56.6217C23.325 57.5613 25.6425 61.2568 27.3337 63.0733V63.0733C28.0227 63.8067 27.4508 65.0042 26.4473 64.9293L25.0788 64.8271C22.6986 64.7019 20.1305 64.0755 19.2536 63.5118C17.1866 62.1338 17.2492 62.8854 19.5668 66.4557C21.5085 69.5249 25.8931 72.782 29.0249 73.471V73.471C29.9365 73.6596 30.4156 74.6669 29.9866 75.4931L29.1502 77.104C27.8348 79.7973 27.459 81.6765 27.0205 87.6896C26.5821 93.6401 26.2063 95.5818 24.9535 98.1499C24.0766 99.8411 23.0744 101.407 22.6986 101.658C22.3854 101.846 22.0722 102.284 22.0722 102.535C22.0722 102.91 24.1393 102.785 30.5282 101.846C31.593 101.658 31.7809 102.159 32.2194 105.291C32.47 107.295 33.7227 111.492 35.0381 114.686C37.1051 119.697 37.4183 121.075 37.4183 125.522V127.05C37.4183 128.594 39.116 129.535 40.4248 128.717V128.717C42.0534 127.715 43.8699 126.023 44.4336 124.896C45.4358 123.079 45.561 123.017 45.749 124.395C46.1248 126.775 44.6215 130.095 41.4897 133.853L39.9205 135.742C39.2572 136.541 39.7132 137.758 40.738 137.924V137.924C44.9347 138.613 48.0665 138.3 50.572 137.047C51.95 136.358 53.0775 135.795 53.1401 135.795C53.2027 135.795 53.7038 137.11 54.3302 138.739C55.2071 141.056 57.462 143.812 63.7257 150.201C68.2982 154.836 72.6201 159.847 73.3718 161.288C74.1234 162.791 74.8124 163.981 75.0003 163.981C75.8146 163.981 77.5058 160.286 77.8816 157.78L77.9053 157.598C78.003 156.85 79.0269 156.709 79.3223 157.404V157.404C80.7003 160.474 80.7629 163.543 79.4476 165.61C78.3827 167.113 78.3827 167.176 80.1366 166.737C83.6442 165.923 87.3398 163.793 88.6552 161.726C89.4068 160.536 90.1584 159.597 90.3464 159.597C90.5343 159.597 91.2859 160.536 92.0376 161.726C93.3529 163.793 97.0485 165.923 100.556 166.737C102.31 167.176 102.31 167.113 101.245 165.61C99.9298 163.543 99.9924 160.474 101.37 157.404V157.404C101.676 156.685 102.734 156.816 102.854 157.589L102.874 157.718C103.187 160.098 105.003 163.981 105.755 163.981C105.88 163.981 106.569 162.791 107.321 161.288C108.073 159.847 112.395 154.836 116.967 150.201C123.231 143.812 125.486 141.056 126.363 138.739C126.989 137.11 127.49 135.795 127.553 135.795C127.615 135.795 128.743 136.358 130.121 137.047C132.626 138.3 135.758 138.613 139.955 137.924V137.924C140.98 137.758 141.436 136.541 140.772 135.742L139.203 133.853C136.071 130.095 134.568 126.775 134.944 124.395C135.132 123.017 135.257 123.079 136.259 124.896C136.823 126.023 138.639 127.715 140.268 128.717V128.717C141.577 129.535 143.274 128.594 143.274 127.05V125.522C143.274 121.075 143.588 119.697 145.655 114.686C146.97 111.492 148.223 107.295 148.473 105.291C148.912 102.159 149.1 101.658 150.165 101.846C156.553 102.785 158.62 102.91 158.62 102.535C158.62 102.284 158.307 101.846 157.994 101.658C157.618 101.407 156.616 99.8411 155.739 98.1499C154.486 95.5818 154.111 93.6401 153.672 87.6896C153.234 81.6138 152.858 79.7973 151.48 77.104L150.959 76.0632C150.383 74.91 150.993 73.5163 152.232 73.1578V73.1578C155.677 72.2809 159.497 69.2744 161.377 66.0799C163.381 62.6349 163.381 62.1964 161.439 63.5118C160.562 64.0755 157.994 64.6392 155.614 64.8271L153.804 64.9622C153.013 65.0212 152.59 64.0513 153.171 63.5118V63.5118C154.612 62.0711 157.368 57.5613 157.368 56.6217C157.368 56.4338 156.616 56.5591 155.677 56.9349C153.923 57.5613 148.912 57.1855 147.471 56.3085C146.97 55.9954 147.534 55.5569 149.037 55.1184C150.352 54.68 152.106 53.8031 152.983 53.1141L153.375 52.8004C153.764 52.489 153.544 51.8613 153.046 51.8613V51.8613C149.977 51.8613 146.03 49.2932 142.899 45.2845C141.207 43.0922 139.078 40.8999 138.201 40.2735V40.2735C137.376 39.7342 137.282 38.5616 138.01 37.8977L138.702 37.2669C142.272 34.0098 143.087 29.7505 141.145 24.6769V24.6769C140.848 23.9203 139.831 23.7931 139.356 24.4532L139.015 24.9275C137.199 27.6835 135.006 29.2494 132.313 29.6879C130.434 30.0011 130.246 29.8758 131.06 29.1868C133.127 27.433 134.192 25.178 134.192 22.6099C134.192 21.1067 134.067 19.9166 133.879 19.9166C133.691 19.9166 132.438 20.6682 131.06 21.5451C129.432 22.6099 127.302 23.3616 125.298 23.5495L124.261 23.6492C123.425 23.7296 122.9 22.7692 123.419 22.1088V22.1088C125.172 19.9166 125.36 16.4089 123.732 17.0979C122.416 17.7243 120.475 17.9122 113.898 18.2254C108.949 18.4759 108.949 18.4759 110.328 17.3484L110.447 17.2507C110.977 16.8173 110.799 15.967 110.14 15.7825V15.7825C109.2 15.5946 107.321 15.5946 105.818 15.7825C103.751 16.0957 102.561 15.8452 100.118 14.5924C97.3617 13.2144 96.2342 13.0265 90.409 13.0265C84.6464 13.0265 83.331 13.277 80.4497 14.5924ZM97.4243 17.0979C99.3661 17.599 99.554 18.288 97.9881 19.4155C94.6057 21.8583 90.9727 29.7505 90.9727 34.6988C90.9727 35.8889 90.7222 36.8285 90.3464 36.8285C90.0332 36.8285 89.72 35.8889 89.72 34.7615C89.72 29.8758 85.8991 21.2946 82.8299 19.4155C81.0761 18.3506 81.264 17.6616 83.6442 17.0353C85.9618 16.3463 94.7936 16.4089 97.4243 17.0979ZM81.6398 24.1132C84.5211 27.1198 85.586 29.1868 87.1519 35.012C88.4046 39.3966 88.4046 41.2131 87.2145 39.334C86.7761 38.645 86.5882 39.2087 86.5882 41.1504C86.5882 44.7207 85.9618 43.9691 84.208 38.3318C81.0135 28.122 76.7542 24.8022 64.54 23.3616C62.9114 23.111 60.9697 22.4847 60.2807 21.9209C59.028 20.9187 59.2785 20.8561 65.1037 21.044C69.7389 21.2319 72.119 21.6704 74.8751 22.7978L76.1009 23.284C76.862 23.5857 77.5657 22.7393 77.13 22.0462V22.0462L76.8184 21.5363C76.5169 21.043 77.0549 20.4652 77.5685 20.7308V20.7308C78.5706 21.2946 80.3871 22.7978 81.6398 24.1132ZM103.5 22.1088V22.1088C103.08 22.7883 103.769 23.6102 104.512 23.3158L105.818 22.7978C108.574 21.6704 110.954 21.2319 115.589 21.044C121.414 20.8561 121.665 20.9187 120.412 21.9209C119.723 22.4847 117.781 23.1737 116.153 23.3616C103.688 24.8649 99.7419 27.9341 96.3595 38.7076C94.6057 44.157 94.1046 44.7207 94.1046 41.1504C94.1046 39.2087 93.9167 38.645 93.4782 39.334C92.2881 41.2131 92.2881 39.3966 93.4782 35.012C95.1694 29.1242 96.5474 26.3681 99.554 23.6121C101.558 21.6704 103.876 19.9792 104.628 19.9166C104.753 19.9166 104.252 20.9187 103.5 22.1088ZM62.5983 26.055C67.2334 25.9923 70.8663 26.2429 72.307 26.744C75.2509 27.7462 78.4454 31.3791 79.9487 35.5131C81.2014 39.0208 81.0135 41.2131 79.6981 38.7076C77.9443 35.3252 74.5619 31.8802 71.43 30.3143C68.4861 28.811 67.4839 28.6857 60.5939 28.6857C53.0775 28.6857 53.0148 28.6857 50.6973 26.744C49.4445 25.6791 48.3797 24.6143 48.3797 24.3638C48.3797 24.1132 49.883 24.3638 51.7621 24.9901C54.4555 25.9297 56.8357 26.1176 62.5983 26.055ZM130.183 26.5561V26.5561C128.608 27.9292 126.589 28.6857 124.5 28.6857H120.099C113.209 28.6857 112.207 28.811 109.263 30.3143C106.131 31.8802 102.748 35.3252 100.995 38.7076C99.6792 41.2131 99.4913 39.0208 100.744 35.5131C102.247 31.3791 105.442 27.7462 108.386 26.744C109.826 26.2429 113.522 25.9923 118.22 26.055C123.92 26.1176 126.488 25.867 128.868 25.0528C130.622 24.4264 132.125 24.0506 132.313 24.1759C132.501 24.3011 131.499 25.366 130.183 26.5561ZM44.6215 31.2538C45.749 31.8802 48.8808 32.1307 56.2093 32.1307C64.7905 32.1307 66.5444 32.3186 68.4235 33.3208C70.6158 34.4483 75.9399 39.2087 75.9399 40.023C75.9399 40.2735 73.9982 39.4592 71.5553 38.2065C66.2312 35.5131 62.3477 35.0747 55.6456 36.4527C49.5698 37.7054 48.1292 37.7054 45.6237 36.5153C43.6193 35.5758 41.4897 32.5066 40.5501 29.3121V29.3121C40.4239 28.8614 40.9669 28.527 41.3125 28.8426L41.5523 29.0615C42.3666 29.8132 43.7446 30.8154 44.6215 31.2538ZM139.516 30.9406C138.138 34.2604 135.633 36.7659 133.253 37.2043C132.188 37.3922 128.68 37.079 125.486 36.5153C117.969 35.1373 114.462 35.5131 109.075 38.2691C106.695 39.4592 104.753 40.2735 104.753 40.023C104.753 39.2087 110.077 34.4483 112.269 33.3208C114.148 32.3186 115.902 32.1307 124.483 32.1307C134.881 32.1307 136.948 31.6923 139.203 28.9989C140.456 27.4956 140.644 28.3099 139.516 30.9406ZM67.0455 40.0856C70.3652 40.8999 70.4279 41.8394 67.1707 41.8394C64.0389 41.8394 58.7148 43.8438 55.5829 46.1614C54.2676 47.1009 51.4489 50.4207 49.3193 53.4899C43.3061 62.259 38.8589 64.5766 32.7205 62.1338C29.7139 60.9437 29.526 60.3799 32.0941 60.192C36.5413 59.8788 43.3061 54.3668 48.0665 47.1636C51.8247 41.4636 53.5786 40.0856 58.339 39.3966C61.4708 38.9581 62.9741 39.0208 67.0455 40.0856ZM126.488 40.5867C128.617 41.5263 129.745 42.779 132.689 47.1636C137.449 54.4294 144.151 59.8788 148.599 60.192C151.167 60.3799 150.979 60.9437 147.972 62.1338C141.834 64.5766 137.387 62.259 131.373 53.4899C129.244 50.4207 126.425 47.1009 125.11 46.1614C121.978 43.8438 116.654 41.8394 113.522 41.8394C110.265 41.8394 110.328 40.8999 113.71 40.0856C119.159 38.645 122.166 38.7702 126.488 40.5867ZM44.6215 46.2867C40.6754 51.7987 38.8589 53.0514 35.226 53.0514H34.8928C34.3493 53.0514 34.1418 52.3422 34.5996 52.0492V52.0492C35.4765 51.4855 38.1699 48.9174 40.5501 46.4119C44.3083 42.5284 47.5028 40.2109 48.2544 40.8999C48.3797 41.0252 46.7511 43.468 44.6215 46.2867ZM140.143 46.4119C142.585 48.9174 145.216 51.4855 146.093 52.0492V52.0492C146.551 52.3422 146.343 53.0514 145.8 53.0514H145.592C142.022 53.1141 139.704 51.4855 136.071 46.4119C131.812 40.4614 131.812 40.4614 134.004 41.2131C134.944 41.5889 137.762 43.9065 140.143 46.4119ZM65.6048 46.9757C62.0972 49.5438 59.0906 53.1141 55.2697 59.3777C53.1401 62.8228 50.1962 66.6436 48.8182 67.8337C46.0621 70.2139 41.427 71.9051 37.6688 71.9051C35.226 71.9051 28.4612 69.9634 25.8304 68.5227C24.4524 67.7084 24.8909 67.6458 29.6513 67.959C39.7985 68.5854 44.4962 65.892 52.0126 55.1811C56.9609 48.1658 60.3433 45.7856 65.6048 45.6603V45.6603C66.184 45.6603 66.4189 46.4058 65.9445 46.7379L65.6048 46.9757ZM118.47 46.224C122.166 47.2888 124.671 49.4811 128.68 55.1811C136.197 65.892 140.894 68.5854 151.041 67.959C155.802 67.6458 156.24 67.7084 154.862 68.5227C152.232 69.9634 145.467 71.9051 143.024 71.9051C139.266 71.9051 134.631 70.2139 131.875 67.8337C130.497 66.6436 127.553 62.8228 125.423 59.3777C121.602 53.1141 118.596 49.5438 115.088 46.9757L114.493 46.559C114.078 46.2687 114.269 45.6179 114.775 45.5976V45.5976C115.652 45.5976 117.28 45.8482 118.47 46.224ZM83.9574 48.1031C85.9618 49.3559 89.72 54.4921 89.72 56.058C89.72 56.4965 90.0332 56.8723 90.3464 56.8723C90.7222 56.8723 90.9727 56.4965 90.9727 56.058C90.9727 54.4921 94.7309 49.3559 96.7353 48.1031C100.556 45.7229 106.131 47.602 111.142 52.9888C113.835 55.8701 114.712 57.7492 115.777 62.8854V62.8854C115.941 63.8344 115.21 64.7019 114.247 64.7019H110.14C105.567 64.7019 104.126 64.514 104.001 63.825C103.876 63.1986 103.5 63.2612 102.373 64.2008C101.37 64.9524 100.556 66.7063 99.9924 69.337L99.6695 70.7149C99.2852 72.3546 99.7608 74.0773 100.932 75.2875V75.2875C103.25 77.7303 104.126 79.9226 104.126 83.6808C104.126 85.3094 104.69 87.8775 105.379 89.3808C106.882 92.5753 106.945 94.3917 105.755 97.2104C104.502 100.28 102.561 101.344 98.3012 101.344C93.3529 101.344 90.9727 100.092 90.9727 97.3983C90.9727 94.7049 92.2255 93.0764 95.6705 91.0093C97.2364 90.1324 98.8023 88.6291 99.1782 87.8149C100.118 85.3094 99.8672 84.8083 98.4891 86.3742C98.3552 86.5484 98.224 86.7025 98.1001 86.8329C97.5784 87.3816 97.0142 86.7879 96.2691 86.6538C95.2338 86.4674 93.3259 86.3742 90.3464 86.3742C87.3668 86.3742 85.4589 86.4674 84.4237 86.6538C83.6785 86.7879 83.1144 87.3816 82.5927 86.8329C82.4687 86.7025 82.3376 86.5484 82.2036 86.3742C80.8256 84.8083 80.575 85.3094 81.5146 87.8149C81.8904 88.6291 83.4563 90.1324 85.0222 91.0093C88.4673 93.0764 89.72 94.7049 89.72 97.3983C89.72 100.092 87.3398 101.344 82.3915 101.344C78.1322 101.344 76.1904 100.28 74.9377 97.2104C73.7476 94.3291 73.8102 92.3247 75.3135 89.4434C76.0652 87.9401 76.5663 85.7478 76.5663 83.8687C76.5663 79.9853 77.3805 77.7303 79.7607 75.2875V75.2875C80.9319 74.0773 81.4076 72.3546 81.0232 70.7149L80.7003 69.337C80.1366 66.7063 79.3223 64.9524 78.3201 64.2008C77.1926 63.2612 76.8168 63.1986 76.6915 63.825C76.5663 64.514 75.1256 64.7019 70.5531 64.7019H66.4459C65.4829 64.7019 64.7522 63.8344 64.9158 62.8854V62.8854C65.9806 57.7492 66.8576 55.8701 69.5509 52.9888C74.7498 47.4141 79.9487 45.6603 83.9574 48.1031ZM71.6806 68.4601C72.9333 69.5249 74.3113 70.026 75.9399 70.026C79.197 70.026 79.8234 71.7798 77.5685 74.4106C76.6289 75.6007 75.8773 77.4171 75.6267 79.2963C75.0003 84.1193 74.6245 85.6226 74.0608 85.9984C73.3718 86.4368 66.9202 77.9182 65.6048 74.849C64.4147 71.9051 64.4147 71.404 65.918 68.8985C67.4213 66.4557 69.1125 66.3304 71.6806 68.4601ZM114.963 69.2744C116.027 71.0908 116.09 71.7172 115.464 73.7842C114.649 76.6029 107.509 86.4995 106.632 85.9984C106.068 85.6226 105.692 84.1193 105.066 79.2963C104.815 77.4171 104.064 75.6007 103.124 74.4106C100.869 71.7798 101.496 70.026 104.753 70.026C106.444 70.026 107.697 69.5875 108.949 68.4601C111.33 66.3304 113.459 66.6436 114.963 69.2744ZM57.2115 70.4645C56.5851 71.6546 53.7665 74.2853 48.1292 78.9831C44.6215 81.927 42.2413 85.8105 40.738 91.2599C39.2974 96.5214 39.2974 99.34 40.9259 108.36C41.9281 113.809 42.116 116.816 41.8028 119.822C41.3017 124.896 40.2369 125.146 40.2369 120.198C40.2369 117.505 39.6732 114.999 38.0446 110.865C30.9667 92.45 35.6018 78.6699 50.9478 73.0952C52.8895 72.4062 55.1445 71.1535 55.9588 70.3392C57.7126 68.7106 58.151 68.7733 57.2115 70.4645ZM125.047 70.5897C125.611 71.2161 127.741 72.3436 129.682 73.0952C131.687 73.7842 134.631 75.2875 136.259 76.3523C146.03 82.8039 148.599 95.7697 142.899 110.051C141.646 113.12 140.832 116.44 140.644 119.321C140.456 121.827 140.08 123.894 139.767 123.894C139.516 123.894 139.078 122.265 138.827 120.261C138.514 117.693 138.765 114.436 139.767 108.548C141.333 98.9642 141.395 96.584 140.143 91.6357C138.765 86.3742 136.197 82.1149 132.689 79.171C127.114 74.5359 124.108 71.7172 123.481 70.5271C122.667 69.0238 123.669 69.0865 125.047 70.5897ZM40.2369 74.9117C40.2369 75.0369 39.2347 76.3523 38.0446 77.793C35.2886 81.1754 33.5348 85.1215 33.0337 89.1302C32.282 95.3939 32.0315 96.2082 30.5282 97.8367C28.5865 99.9664 27.3337 99.9664 28.7117 97.8367C29.4007 96.8346 29.9645 94.0785 30.2777 90.2577C31.1546 79.86 33.7227 74.7238 37.982 74.7238C39.2347 74.7238 40.2369 74.7864 40.2369 74.9117ZM146.093 75.9765C148.098 77.793 149.851 83.4929 150.415 90.0698C150.728 94.0785 151.292 96.8346 151.981 97.8367C153.359 99.9664 152.106 99.9664 150.165 97.8367C148.599 96.1456 148.285 95.1434 147.659 89.4434C147.095 85.1215 145.467 81.238 142.648 77.793C141.458 76.3523 140.456 75.0369 140.456 74.9117C140.456 74.2227 145.091 75.0369 146.093 75.9765ZM59.028 78.3567C59.028 84.6204 56.773 89.9445 50.9478 97.6488C48.3797 101.094 47.9412 102.472 46.5632 111.617C45.8116 116.753 44.6215 118.632 44.6215 114.623C44.6215 113.183 44.183 109.425 43.6193 106.23C42.4918 99.8411 42.8677 96.2708 45.2479 89.7566C46.438 86.6248 47.5654 85.1215 52.3258 80.4864C55.395 77.4798 58.2137 75.0369 58.4642 75.0369C58.7774 75.0369 59.028 76.5402 59.028 78.3567ZM127.114 79.2336C132.313 83.8061 134.38 86.75 136.071 91.6357C137.825 96.7719 138.076 100.53 137.073 106.355C136.51 109.299 136.071 112.932 136.071 114.436C136.071 118.57 134.881 116.878 134.129 111.617C132.751 102.472 132.313 101.094 129.745 97.6488C125.799 92.3873 123.732 88.817 122.667 85.1215C121.665 81.7391 121.289 75.0369 122.041 75.0369C122.291 75.0369 124.546 76.9161 127.114 79.2336ZM66.8576 93.4522C67.6718 98.7763 66.2938 102.159 60.9071 107.921C56.2719 112.932 55.395 114.623 54.5807 120.574C53.8291 126.211 52.8269 128.842 50.5094 131.598C47.816 134.792 46.9391 134.918 48.505 131.911C49.6951 129.656 49.883 128.529 49.6324 123.894C49.0687 110.615 49.5698 109.174 57.462 102.597C62.6609 98.2752 65.2916 94.7049 65.2916 91.9489C65.2916 89.5687 66.4817 90.6962 66.8576 93.4522ZM115.401 91.9489C115.401 94.7049 118.032 98.2752 123.231 102.597C130.434 108.61 131.373 110.489 131.123 118.256C130.747 127.965 130.81 129.343 132.25 132.036C133.754 134.98 132.814 134.792 130.183 131.598C127.866 128.842 126.864 126.211 126.112 120.574C125.298 114.561 124.421 112.932 119.66 107.796C114.211 101.971 112.833 98.2126 113.898 92.6379C114.336 90.4456 115.401 90.0071 115.401 91.9489ZM91.8496 102.284C92.6639 102.91 94.543 103.224 96.9859 103.224C102.373 103.224 102.874 103.537 102.874 106.481C102.874 108.297 102.498 109.299 101.245 110.427C99.4287 112.118 98.4891 112.431 98.4891 111.304C98.4891 110.99 97.8628 111.116 97.1111 111.617C96.3595 112.181 95.1694 112.619 94.543 112.619C93.9167 112.619 92.7266 113.308 91.9123 114.185V114.185C91.0373 115.025 89.6554 115.025 88.7804 114.185V114.185C87.9662 113.308 86.7761 112.619 86.1497 112.619C85.5233 112.619 84.3332 112.181 83.5816 111.617C82.8299 111.116 82.2036 110.99 82.2036 111.304C82.2036 112.431 81.264 112.118 79.4476 110.427C78.1948 109.299 77.819 108.297 77.819 106.481C77.819 103.537 78.3201 103.224 83.7069 103.224C86.1497 103.224 88.0288 102.91 88.8431 102.284C89.4694 101.783 90.1584 101.407 90.3464 101.407C90.5343 101.407 91.2233 101.783 91.8496 102.284ZM70.3026 104.977C70.3026 106.669 69.2378 111.617 67.7971 116.315C66.4191 120.887 65.2916 125.961 65.2916 127.589C65.2916 131.911 66.7949 136.922 69.9268 143.123C72.119 147.633 75.6267 157.091 75.063 157.091C74.9377 157.091 72.996 154.523 70.6784 151.454C68.3608 148.322 65.6048 145.19 64.6026 144.439C60.6565 141.495 57.1489 133.54 57.1489 127.464C57.1489 122.077 58.6521 118.444 63.4125 112.118C65.7927 108.861 68.1103 105.291 68.5488 104.1C69.6136 101.094 70.3026 101.47 70.3026 104.977ZM117.719 112.807C119.723 115.438 121.915 119.008 122.479 120.637C125.172 128.216 121.978 140.054 116.09 144.439C115.088 145.19 112.332 148.322 110.014 151.454C107.697 154.523 105.755 157.091 105.63 157.091C105.066 157.091 108.511 147.633 110.703 143.311C116.215 132.287 116.529 128.404 112.896 116.315C109.638 105.416 109.451 98.2752 112.582 104.977C113.397 106.606 115.652 110.114 117.719 112.807ZM75.1256 113.809C75.752 115.25 76.3157 119.509 76.6289 125.773C77.1926 137.047 78.1322 140.868 81.8904 148.698C84.2706 153.521 84.709 155.024 84.709 158.093L84.7048 158.343C84.6933 159.024 83.742 159.176 83.5189 158.532V158.532C82.8926 156.715 80.575 152.456 78.3201 149.136C73.3091 141.683 71.8059 138.801 70.6158 134.103C69.0498 128.09 69.4257 122.829 71.9311 113.997C72.996 110.364 73.685 110.301 75.1256 113.809ZM109.701 117.567C111.267 123.831 111.392 129.155 110.077 134.103C108.887 138.801 107.384 141.683 102.373 149.136C100.118 152.456 97.8001 156.715 97.1738 158.532V158.532C96.9507 159.176 95.9995 159.024 95.9879 158.343L95.9837 158.093C95.9837 155.024 96.4221 153.521 98.8023 148.698C102.623 140.868 103.5 136.985 104.126 125.773C104.565 116.565 105.191 113.433 106.757 111.492C107.697 110.364 108.073 111.053 109.701 117.567ZM86.8387 121.388C87.9662 123.518 88.5925 125.773 88.8431 128.717L89.0204 130.726C89.0729 131.321 88.2974 131.594 87.9662 131.097V131.097C87.3398 130.032 85.9618 126.65 84.897 123.58C83.8948 120.449 82.8299 117.379 82.5168 116.69C81.5146 114.248 85.0222 118.131 86.8387 121.388ZM97.6749 118.068C97.1738 119.008 96.1716 121.889 95.4199 124.395C94.6683 126.9 93.4782 129.844 92.7892 130.972V130.972C92.446 131.495 91.6319 131.211 91.6877 130.588L91.8496 128.779C92.1628 124.332 93.5408 121.012 96.3595 117.693C98.3012 115.375 98.9276 115.5 97.6749 118.068ZM81.953 123.455C82.5168 125.209 84.2706 129.406 85.8991 132.6C88.7804 138.551 88.7804 138.551 88.7178 144.814C88.6552 148.322 88.342 151.83 88.0288 152.707C87.4024 154.21 87.3398 154.147 86.9013 151.454C86.6508 149.951 85.0222 145.441 83.2684 141.495C80.1992 134.417 80.1366 134.103 79.8234 126.775C79.5102 118.632 80.0739 117.693 81.953 123.455ZM100.869 126.9C100.556 134.041 100.494 134.417 97.4243 141.495C95.6705 145.441 94.0419 149.951 93.7914 151.454C93.3529 154.147 93.2903 154.21 92.6639 152.707C92.3507 151.83 92.0376 148.322 91.9749 144.814C91.9123 138.551 91.9123 138.551 94.7936 132.6C96.4221 129.406 98.0507 125.585 98.4891 124.207C100.619 117.379 101.245 118.068 100.869 126.9Z" fill="#64FFDA"/>
</svg>
