<svg width="500" height="500" viewBox="0 0 500 500" fill="none" xmlns="http://www.w3.org/2000/svg">
<rect width="500" height="500" rx="16" fill="#0A192F"/>
<path d="M223.472 40.5346C216.338 43.8404 212.51 44.5364 207.465 43.8404C203.637 43.1445 198.591 43.3185 196.155 43.8404V43.8404C194.264 44.3496 193.741 46.7848 195.257 48.025L195.459 48.1902C199.287 51.3221 199.287 51.3221 185.542 50.6261C167.273 49.7561 161.879 49.2342 158.399 47.4943C153.701 45.5804 154.223 55.3239 159.095 61.4135V61.4135C160.536 63.248 159.078 65.9156 156.756 65.6923L153.875 65.4153C148.308 64.8934 142.392 62.8055 137.868 59.8476C134.04 57.4117 130.561 55.3239 130.039 55.3239C129.517 55.3239 129.169 58.6297 129.169 62.8055C129.169 69.9391 132.126 76.2028 137.868 81.0745C140.13 82.9884 139.608 83.3364 134.388 82.4665C126.907 81.2485 120.817 76.8988 115.771 69.2431L114.824 67.9257C113.506 66.092 110.681 66.4454 109.856 68.5472V68.5472C104.636 82.2925 106.898 94.6459 116.293 103.519L118.394 105.44C120.415 107.288 120.151 110.546 117.859 112.045V112.045C115.423 113.611 109.682 119.701 104.984 125.79C96.2843 136.926 85.3229 144.059 76.7973 144.059V144.059C75.4127 144.059 74.801 145.803 75.8822 146.668L76.9713 147.539C79.4072 149.453 84.8009 152.063 89.1507 153.455V153.455C91.215 154.051 91.1198 157.008 89.0214 157.47L86.7148 157.979C79.2332 159.545 74.7094 159.545 70.5336 158.327C67.4018 157.283 64.7919 156.935 64.7919 157.283C64.7919 159.893 71.2296 170.158 75.9273 175.204V175.204C77.8412 177.241 76.2526 180.567 73.4651 180.359L69.6637 180.076C63.052 179.728 55.9184 177.988 53.4825 176.422C47.7408 172.594 47.9148 174.682 54.3524 184.599C59.7462 193.125 71.9255 202.172 80.6251 204.086V204.086C83.1573 204.61 84.488 207.408 83.2964 209.703L80.9731 214.178C77.3193 221.659 76.2753 226.879 75.0574 243.582C73.8394 260.111 72.7955 265.505 69.3157 272.639C66.8798 277.337 64.0959 281.686 63.052 282.382C62.182 282.904 61.3121 284.122 61.3121 284.818C61.3121 285.862 67.0538 285.514 84.8009 282.904C87.7587 282.382 88.2807 283.774 89.4986 292.474C90.1946 298.042 93.6744 309.699 97.3282 318.572C103.07 332.492 103.94 336.32 103.94 348.673V352.918C103.94 357.205 108.656 359.819 112.291 357.546V357.546C116.815 354.763 121.861 350.065 123.427 346.933C126.211 341.887 126.559 341.713 127.081 345.541C128.125 352.153 123.949 361.374 115.249 371.814L110.891 377.062C109.048 379.281 110.315 382.662 113.161 383.123V383.123C124.819 385.037 133.518 384.167 140.478 380.687C144.306 378.773 147.438 377.207 147.612 377.207C147.786 377.207 149.178 380.861 150.918 385.385C153.353 391.823 159.617 399.478 177.016 417.225C189.718 430.101 201.723 444.02 203.811 448.022C205.899 452.198 207.813 455.503 208.335 455.503C210.596 455.503 215.294 445.238 216.338 438.278L216.404 437.773C216.675 435.694 219.52 435.304 220.34 437.234V437.234C224.168 445.76 224.342 454.286 220.688 460.027C217.73 464.203 217.73 464.377 222.602 463.159C232.345 460.897 242.611 454.982 246.265 449.24C248.353 445.934 250.44 443.324 250.962 443.324C251.484 443.324 253.572 445.934 255.66 449.24C259.314 454.982 269.579 460.897 279.323 463.159C284.195 464.377 284.195 464.203 281.237 460.027C277.583 454.286 277.757 445.76 281.585 437.234V437.234C282.434 435.236 285.371 435.601 285.705 437.747L285.761 438.104C286.631 444.716 291.676 455.503 293.764 455.503C294.112 455.503 296.026 452.198 298.114 448.022C300.202 444.02 312.207 430.101 324.909 417.225C342.308 399.478 348.571 391.823 351.007 385.385C352.747 380.861 354.139 377.207 354.313 377.207C354.487 377.207 357.619 378.773 361.447 380.687C368.406 384.167 377.106 385.037 388.763 383.123V383.123C391.61 382.662 392.877 379.281 391.034 377.062L386.675 371.814C377.976 361.374 373.8 352.153 374.844 345.541C375.366 341.713 375.714 341.887 378.498 346.933C380.064 350.065 385.11 354.763 389.633 357.546V357.546C393.269 359.819 397.985 357.205 397.985 352.918V348.673C397.985 336.32 398.855 332.492 404.597 318.572C408.25 309.699 411.73 298.042 412.426 292.474C413.644 283.774 414.166 282.382 417.124 282.904C434.871 285.514 440.613 285.862 440.613 284.818C440.613 284.122 439.743 282.904 438.873 282.382C437.829 281.686 435.045 277.337 432.609 272.639C429.129 265.505 428.085 260.111 426.867 243.582C425.65 226.705 424.606 221.659 420.778 214.178L419.332 211.287C417.731 208.083 419.426 204.212 422.866 203.216V203.216C432.435 200.78 443.049 192.429 448.268 183.555C453.836 173.986 453.836 172.768 448.442 176.422C446.006 177.988 438.873 179.554 432.261 180.076L427.234 180.451C425.037 180.615 423.862 177.92 425.476 176.422V176.422C429.477 172.42 437.133 159.893 437.133 157.283C437.133 156.761 435.045 157.109 432.435 158.153C427.563 159.893 413.644 158.849 409.642 156.413C408.25 155.543 409.816 154.325 413.992 153.107C417.646 151.889 422.518 149.453 424.954 147.539L426.043 146.668C427.124 145.803 426.512 144.059 425.128 144.059V144.059C416.602 144.059 405.641 136.926 396.941 125.79C392.243 119.701 386.328 113.611 383.892 111.871V111.871C381.601 110.373 381.339 107.116 383.362 105.272L385.284 103.519C395.201 94.4719 397.463 82.6405 392.069 68.5472V68.5472C391.244 66.4454 388.418 66.092 387.1 67.9257L386.154 69.2431C381.108 76.8988 375.018 81.2485 367.536 82.4665C362.317 83.3364 361.795 82.9884 364.057 81.0745C369.798 76.2028 372.756 69.9391 372.756 62.8055C372.756 58.6297 372.408 55.3239 371.886 55.3239C371.364 55.3239 367.884 57.4117 364.057 59.8476C359.533 62.8055 353.617 64.8934 348.049 65.4153L345.169 65.6923C342.847 65.9156 341.388 63.248 342.83 61.4135V61.4135C347.701 55.3239 348.223 45.5804 343.7 47.4943C340.046 49.2342 334.652 49.7561 316.383 50.6261C302.638 51.3221 302.638 51.3221 306.466 48.1902L306.797 47.9188C308.269 46.715 307.774 44.353 305.944 43.8404V43.8404C303.334 43.3185 298.114 43.3185 293.938 43.8404C288.197 44.7104 284.891 44.0144 278.105 40.5346C270.449 36.7068 267.318 36.1848 251.136 36.1848C235.129 36.1848 231.475 36.8808 223.472 40.5346ZM270.623 47.4943C276.017 48.8862 276.539 50.8001 272.189 53.9319C262.794 60.7176 252.702 82.6405 252.702 96.3858C252.702 99.6916 252.006 102.301 250.962 102.301C250.092 102.301 249.222 99.6916 249.222 96.5598C249.222 82.9884 238.609 59.1517 230.083 53.9319C225.212 50.9741 225.734 49.0602 232.345 47.3203C238.783 45.4064 263.316 45.5804 270.623 47.4943ZM226.778 66.9813C234.781 75.3328 237.739 81.0745 242.089 97.2557C245.569 109.435 245.569 114.481 242.263 109.261C241.045 107.347 240.523 108.913 240.523 114.307C240.523 124.224 238.783 122.136 233.911 106.477C225.038 78.1167 213.206 68.8952 179.278 64.8934C174.754 64.1974 169.361 62.4575 167.447 60.8916C163.967 58.1077 164.663 57.9337 180.844 58.4557C193.719 58.9777 200.331 60.1956 207.987 63.3274L211.392 64.6778C213.506 65.5161 215.46 63.1648 214.25 61.2396V61.2396L213.385 59.8232C212.547 58.4528 214.042 56.8479 215.468 57.5857V57.5857C218.252 59.1517 223.298 63.3274 226.778 66.9813ZM287.501 61.4135V61.4135C286.335 63.3009 288.248 65.5839 290.31 64.7661L293.938 63.3274C301.594 60.1956 308.205 58.9777 321.081 58.4557C337.262 57.9337 337.958 58.1077 334.478 60.8916C332.564 62.4575 327.171 64.3714 322.647 64.8934C288.023 69.0692 277.061 77.5947 267.666 107.521C262.794 122.658 261.402 124.224 261.402 114.307C261.402 108.913 260.88 107.347 259.662 109.261C256.356 114.481 256.356 109.435 259.662 97.2557C264.36 80.9006 268.188 73.2449 276.539 65.5893C282.107 60.1956 288.544 55.4978 290.632 55.3239C290.98 55.3239 289.588 58.1077 287.501 61.4135ZM173.884 72.375C186.76 72.201 196.851 72.897 200.853 74.2889C209.031 77.0727 217.904 87.1642 222.08 98.6477C225.56 108.391 225.038 114.481 221.384 107.521C216.512 98.1257 207.117 88.5562 198.417 84.2064C190.24 80.0306 187.456 79.6826 168.317 79.6826C147.438 79.6826 147.264 79.6826 140.826 74.2889C137.346 71.331 134.388 68.3732 134.388 67.6772C134.388 66.9813 138.564 67.6772 143.784 69.4171C151.265 72.027 157.877 72.549 173.884 72.375ZM361.621 73.7669L359.354 75.743C356.44 78.2832 352.705 79.6826 348.84 79.6826H333.608C314.469 79.6826 311.685 80.0306 303.508 84.2064C294.808 88.5562 285.413 98.1257 280.541 107.521C276.887 114.481 276.365 108.391 279.845 98.6477C284.021 87.1642 292.894 77.0727 301.072 74.2889C305.074 72.897 315.339 72.201 328.388 72.375C344.222 72.549 351.355 71.853 357.967 69.5911C362.839 67.8512 367.014 66.8073 367.536 67.1553C368.058 67.5032 365.275 70.4611 361.621 73.7669ZM123.949 86.8163C127.081 88.5562 135.78 89.2521 156.137 89.2521C179.974 89.2521 184.846 89.7741 190.066 92.558C196.155 95.6898 210.944 108.913 210.944 111.175C210.944 111.871 205.551 109.609 198.765 106.129C183.976 98.6477 173.188 97.4297 154.571 101.258C137.694 104.737 133.692 104.737 126.733 101.432C121.165 98.8216 115.249 90.2961 112.639 81.4225V81.4225C112.289 80.1705 113.797 79.2418 114.757 80.1185L115.423 80.7266C117.685 82.8145 121.513 85.5983 123.949 86.8163ZM387.545 85.9463C383.718 95.1678 376.758 102.127 370.146 103.345C367.188 103.867 357.445 102.997 348.571 101.432C327.692 97.6037 317.949 98.6477 302.986 106.303C296.374 109.609 290.98 111.871 290.98 111.175C290.98 108.913 305.77 95.6898 311.859 92.558C317.079 89.7741 321.951 89.2521 345.788 89.2521C374.67 89.2521 380.412 88.0342 386.675 80.5526C390.155 76.3768 390.677 78.6387 387.545 85.9463ZM186.238 111.349C195.459 113.611 195.633 116.221 186.586 116.221C177.886 116.221 163.097 121.788 154.397 128.226C150.744 130.836 142.914 140.058 136.998 148.583C120.295 172.942 107.942 179.38 90.8906 172.594C82.539 169.288 82.017 167.722 89.1507 167.2C101.504 166.33 120.295 151.019 133.518 131.01C143.958 115.177 148.83 111.349 162.053 109.435C170.752 108.217 174.928 108.391 186.238 111.349ZM351.355 112.741C357.271 115.351 360.403 118.831 368.58 131.01C381.804 151.193 400.421 166.33 412.774 167.2C419.908 167.722 419.386 169.288 411.034 172.594C393.983 179.38 381.63 172.942 364.927 148.583C359.011 140.058 351.181 130.836 347.527 128.226C338.828 121.788 324.039 116.221 315.339 116.221C306.292 116.221 306.466 113.611 315.861 111.349C330.998 107.347 339.35 107.695 351.355 112.741ZM123.949 128.574C112.987 143.885 107.942 147.365 97.8502 147.365H96.9249C95.4151 147.365 94.8387 145.395 96.1103 144.581V144.581C98.5462 143.015 106.028 135.882 112.639 128.922C123.079 118.135 131.952 111.697 134.04 113.611C134.388 113.959 129.865 120.745 123.949 128.574ZM389.285 128.922C396.071 135.882 403.379 143.015 405.815 144.581V144.581C407.086 145.395 406.51 147.365 405 147.365H404.423C394.505 147.539 388.067 143.015 377.976 128.922C366.145 112.393 366.145 112.393 372.234 114.481C374.844 115.525 382.674 121.962 389.285 128.922ZM182.236 130.488C172.492 137.622 164.141 147.539 153.527 164.938C147.612 174.508 139.434 185.121 135.606 188.427C127.951 195.039 115.075 199.737 104.636 199.737C97.8502 199.737 79.0592 194.343 71.7515 190.341C67.9237 188.079 69.1417 187.905 82.365 188.775C110.552 190.515 123.601 183.033 144.48 153.281C158.225 133.794 167.621 127.182 182.236 126.834V126.834C183.845 126.834 184.497 128.905 183.179 129.828L182.236 130.488ZM329.084 128.4C339.35 131.358 346.31 137.448 357.445 153.281C378.324 183.033 391.373 190.515 419.56 188.775C432.783 187.905 434.001 188.079 430.173 190.341C422.866 194.343 404.075 199.737 397.289 199.737C386.849 199.737 373.974 195.039 366.319 188.427C362.491 185.121 354.313 174.508 348.397 164.938C337.784 147.539 329.432 137.622 319.689 130.488L318.035 129.331C316.884 128.524 317.414 126.716 318.819 126.66V126.66C321.255 126.66 325.779 127.356 329.084 128.4ZM233.215 133.62C238.783 137.1 249.222 151.367 249.222 155.717C249.222 156.935 250.092 157.979 250.962 157.979C252.006 157.979 252.702 156.935 252.702 155.717C252.702 151.367 263.142 137.1 268.71 133.62C279.323 127.008 294.808 132.228 308.727 147.191C316.209 155.195 318.645 160.415 321.603 174.682V174.682C322.057 177.318 320.027 179.728 317.353 179.728H305.944C293.242 179.728 289.24 179.206 288.892 177.292C288.544 175.552 287.501 175.726 284.369 178.336C281.585 180.423 279.323 185.295 277.757 192.603L276.86 196.43C275.792 200.985 277.114 205.77 280.367 209.132V209.132C286.805 215.918 289.24 222.007 289.24 232.447C289.24 236.971 290.806 244.104 292.72 248.28C296.896 257.154 297.07 262.199 293.764 270.029C290.284 278.554 284.891 281.512 273.059 281.512C259.314 281.512 252.702 278.033 252.702 270.551C252.702 263.069 256.182 258.546 265.752 252.804C270.101 250.368 274.451 246.192 275.495 243.93C278.105 236.971 277.409 235.579 273.581 239.928C272.55 241.269 271.581 242.181 270.925 242.449C270.224 242.736 270.047 241.553 269.358 241.239C267.442 240.365 261.713 239.928 250.962 239.928C240.211 239.928 234.483 240.365 232.567 241.239C231.878 241.553 231.7 242.736 231 242.449C230.344 242.181 229.374 241.269 228.344 239.928C224.516 235.579 223.82 236.971 226.43 243.93C227.474 246.192 231.823 250.368 236.173 252.804C245.743 258.546 249.222 263.069 249.222 270.551C249.222 278.033 242.611 281.512 228.866 281.512C217.034 281.512 211.64 278.554 208.161 270.029C204.855 262.025 205.029 256.458 209.205 248.454C211.292 244.278 212.684 238.189 212.684 232.969C212.684 222.181 214.946 215.918 221.558 209.132V209.132C224.811 205.77 226.132 200.985 225.065 196.43L224.168 192.603C222.602 185.295 220.34 180.423 217.556 178.336C214.424 175.726 213.38 175.552 213.032 177.292C212.684 179.206 208.683 179.728 195.981 179.728H184.572C181.897 179.728 179.868 177.318 180.322 174.682V174.682C183.28 160.415 185.716 155.195 193.197 147.191C207.639 131.706 222.08 126.834 233.215 133.62ZM199.113 190.167C202.593 193.125 206.421 194.517 210.944 194.517C219.992 194.517 221.732 199.389 215.468 206.696C212.858 210.002 210.77 215.048 210.074 220.267C208.335 233.665 207.291 237.841 205.725 238.885C203.811 240.102 185.89 216.44 182.236 207.914C178.93 199.737 178.93 198.345 183.106 191.385C187.282 184.599 191.979 184.251 199.113 190.167ZM319.341 192.429C322.299 197.475 322.473 199.215 320.733 204.956C318.471 212.786 298.636 240.276 296.2 238.885C294.634 237.841 293.59 233.665 291.85 220.267C291.154 215.048 289.066 210.002 286.457 206.696C280.193 199.389 281.933 194.517 290.98 194.517C295.678 194.517 299.158 193.299 302.638 190.167C309.249 184.251 315.165 185.121 319.341 192.429ZM158.921 195.735C157.181 199.041 149.352 206.348 133.692 219.398C123.949 227.575 117.337 238.363 113.161 253.5C109.16 268.115 109.16 275.945 113.683 300.999C116.467 316.137 116.989 324.488 116.119 332.84C114.727 346.933 111.77 347.629 111.77 333.884C111.77 326.402 110.204 319.442 105.68 307.959C86.0188 256.806 98.8942 218.528 141.522 203.042C146.916 201.128 153.179 197.649 155.441 195.387C160.313 190.863 161.531 191.037 158.921 195.735ZM347.353 196.083C348.919 197.823 354.835 200.954 360.229 203.042C365.797 204.956 373.974 209.132 378.498 212.09C405.641 230.011 412.774 266.027 396.941 305.697C393.461 314.223 391.199 323.444 390.677 331.448C390.155 338.407 389.111 344.149 388.241 344.149C387.545 344.149 386.328 339.625 385.632 334.058C384.762 326.924 385.458 317.877 388.241 301.521C392.591 274.901 392.765 268.289 389.285 254.544C385.458 239.928 378.324 228.097 368.58 219.919C353.095 207.044 344.744 199.215 343.004 195.909C340.742 191.733 343.526 191.907 347.353 196.083ZM111.77 208.088C111.77 208.436 108.986 212.09 105.68 216.092C98.0242 225.487 93.1525 236.449 91.7605 247.584C89.6726 264.983 88.9767 267.245 84.8009 271.769C79.4072 277.685 75.9273 277.685 79.7551 271.769C81.669 268.985 83.235 261.329 84.1049 250.716C86.5408 221.833 93.6744 207.566 105.506 207.566C108.986 207.566 111.77 207.74 111.77 208.088ZM405.815 211.046C411.382 216.092 416.254 231.925 417.82 250.194C418.69 261.329 420.256 268.985 422.17 271.769C425.998 277.685 422.518 277.685 417.124 271.769C412.774 267.071 411.904 264.287 410.164 248.454C408.598 236.449 404.075 225.661 396.245 216.092C392.939 212.09 390.155 208.436 390.155 208.088C390.155 206.174 403.031 208.436 405.815 211.046ZM163.967 217.658C163.967 235.057 157.703 249.846 141.522 271.247C134.388 280.816 133.17 284.644 129.343 310.047C127.255 324.314 123.949 329.534 123.949 318.398C123.949 314.397 122.731 303.957 121.165 295.084C118.033 277.337 119.077 267.419 125.689 249.324C128.995 240.624 132.126 236.449 145.35 223.573C153.875 215.222 161.705 208.436 162.401 208.436C163.271 208.436 163.967 212.612 163.967 217.658ZM353.095 220.093C367.536 232.795 373.278 240.972 377.976 254.544C382.848 268.811 383.544 279.25 380.76 295.432C379.194 303.609 377.976 313.701 377.976 317.877C377.976 329.36 374.67 324.662 372.582 310.047C368.754 284.644 367.536 280.816 360.403 271.247C349.441 256.632 343.7 246.714 340.742 236.449C337.958 227.053 336.914 208.436 339.002 208.436C339.698 208.436 345.962 213.656 353.095 220.093ZM185.716 259.589C187.978 274.379 184.15 283.774 169.187 299.781C156.311 313.701 153.875 318.398 151.613 334.928C149.526 350.587 146.742 357.894 140.304 365.55C132.822 374.424 130.387 374.772 134.736 366.42C138.042 360.156 138.564 357.025 137.868 344.149C136.302 307.263 137.694 303.261 159.617 284.992C174.058 272.987 181.366 263.069 181.366 255.414C181.366 248.802 184.672 251.934 185.716 259.589ZM320.559 255.414C320.559 263.069 327.866 272.987 342.308 284.992C362.317 301.695 364.927 306.915 364.231 328.49C363.187 355.459 363.361 359.286 367.362 366.768C371.538 374.946 368.928 374.424 361.621 365.55C355.183 357.894 352.399 350.587 350.311 334.928C348.049 318.224 345.614 313.701 332.39 299.433C317.253 283.252 313.425 272.813 316.383 257.328C317.601 251.238 320.559 250.02 320.559 255.414ZM255.138 284.122C257.4 285.862 262.62 286.732 269.405 286.732C284.369 286.732 285.761 287.602 285.761 295.78C285.761 300.825 284.717 303.609 281.237 306.741C276.191 311.439 273.581 312.309 273.581 309.177C273.581 308.307 271.841 308.655 269.753 310.047C267.666 311.613 264.36 312.831 262.62 312.831C260.88 312.831 257.574 314.745 255.312 317.181V317.181C252.882 319.514 249.043 319.514 246.613 317.181V317.181C244.351 314.745 241.045 312.831 239.305 312.831C237.565 312.831 234.259 311.613 232.171 310.047C230.083 308.655 228.344 308.307 228.344 309.177C228.344 312.309 225.734 311.439 220.688 306.741C217.208 303.609 216.164 300.825 216.164 295.78C216.164 287.602 217.556 286.732 232.519 286.732C239.305 286.732 244.525 285.862 246.787 284.122C248.527 282.73 250.44 281.686 250.962 281.686C251.484 281.686 253.398 282.73 255.138 284.122ZM195.285 291.604C195.285 296.302 192.327 310.047 188.326 323.096C184.498 335.798 181.366 349.891 181.366 354.415C181.366 366.42 185.542 380.339 194.241 397.564C200.331 410.092 210.074 436.364 208.509 436.364C208.161 436.364 202.767 429.231 196.329 420.705C189.892 412.006 182.236 403.306 179.452 401.218C168.491 393.041 158.747 370.944 158.747 354.067C158.747 339.103 162.923 329.012 176.146 311.439C182.758 302.391 189.196 292.474 190.413 289.168C193.371 280.816 195.285 281.86 195.285 291.604ZM326.997 313.353C332.564 320.66 338.654 330.578 340.22 335.102C347.701 356.155 338.828 389.039 322.473 401.218C319.689 403.306 312.033 412.006 305.596 420.705C299.158 429.231 293.764 436.364 293.416 436.364C291.85 436.364 301.42 410.092 307.51 398.086C322.821 367.464 323.691 356.677 313.599 323.096C304.552 292.822 304.03 272.987 312.729 291.604C314.991 296.128 321.255 305.871 326.997 313.353ZM208.683 316.137C210.422 320.138 211.988 331.97 212.858 349.369C214.424 380.687 217.034 391.301 227.474 413.05C234.085 426.447 235.303 430.623 235.303 439.148L235.291 439.841C235.259 441.735 232.617 442.156 231.997 440.366V440.366C230.257 435.321 223.82 423.489 217.556 414.268C203.637 393.563 199.461 385.559 196.155 372.51C191.805 355.807 192.849 341.191 199.809 316.659C202.767 306.567 204.681 306.393 208.683 316.137ZM304.726 326.576C309.075 343.975 309.423 358.764 305.77 372.51C302.464 385.559 298.288 393.563 284.369 414.268C278.105 423.489 271.667 435.321 269.927 440.366V440.366C269.308 442.156 266.665 441.735 266.633 439.841L266.622 439.148C266.622 430.623 267.84 426.447 274.451 413.05C285.065 391.301 287.501 380.513 289.24 349.369C290.458 323.792 292.198 315.093 296.548 309.699C299.158 306.567 300.202 308.481 304.726 326.576ZM241.219 337.19C244.351 343.105 246.091 349.369 246.787 357.546L247.279 363.129C247.425 364.781 245.271 365.538 244.351 364.158V364.158C242.611 361.2 238.783 351.805 235.825 343.279C233.041 334.58 230.083 326.054 229.214 324.14C226.43 317.355 236.173 328.142 241.219 337.19ZM271.319 327.968C269.927 330.578 267.144 338.581 265.056 345.541C262.968 352.501 259.662 360.678 257.748 363.81V363.81C256.795 365.263 254.533 364.475 254.688 362.745L255.138 357.72C256.008 345.367 259.836 336.146 267.666 326.924C273.059 320.486 274.799 320.834 271.319 327.968ZM227.648 342.931C229.214 347.803 234.085 359.46 238.609 368.334C246.613 384.863 246.613 384.863 246.439 402.262C246.265 412.006 245.395 421.749 244.525 424.185C242.785 428.361 242.611 428.187 241.393 420.705C240.697 416.529 236.173 404.002 231.301 393.041C222.776 373.38 222.602 372.51 221.732 352.153C220.862 329.534 222.428 326.924 227.648 342.931ZM280.193 352.501C279.323 372.336 279.149 373.38 270.623 393.041C265.752 404.002 261.228 416.529 260.532 420.705C259.314 428.187 259.14 428.361 257.4 424.185C256.53 421.749 255.66 412.006 255.486 402.262C255.312 384.863 255.312 384.863 263.316 368.334C267.84 359.46 272.363 348.847 273.581 345.019C279.497 326.054 281.237 327.968 280.193 352.501Z" fill="#64FFDA"/>
</svg>
