<svg width="232" height="246" viewBox="0 0 232 246" fill="none" xmlns="http://www.w3.org/2000/svg">
<path d="M100.08 2.50005C95.9798 4.40005 93.7798 4.80005 90.8798 4.40005C88.6798 4.00005 85.7798 4.10005 84.3798 4.40005L81.7798 5.10005L83.9798 6.90005C86.1798 8.70005 86.1798 8.70005 78.2798 8.30005C67.7798 7.80005 64.6798 7.50005 62.6798 6.50005C59.9798 5.40005 60.2798 11 63.0798 14.5L65.2798 17.3L60.0798 16.8C56.8798 16.5 53.4798 15.3 50.8798 13.6C48.6798 12.2 46.6798 11 46.3798 11C46.0798 11 45.8798 12.9 45.8798 15.3C45.8798 19.4 47.5798 23 50.8798 25.8C52.1798 26.9 51.8798 27.1 48.8798 26.6C44.5798 25.9 41.0798 23.4 38.1798 19L35.8798 15.8L34.7798 18.6C31.7798 26.5 33.0798 33.6 38.4798 38.7L41.9798 41.9L39.3798 43.6C37.9798 44.5 34.6798 48 31.9798 51.5C26.9798 57.9 20.6798 62 15.7798 62H13.3798L15.8798 64C17.2798 65.1 20.3798 66.6 22.8798 67.4L27.3798 68.7L21.4798 70C17.1798 70.9 14.5798 70.9 12.1798 70.2C10.3798 69.6 8.87982 69.4 8.87982 69.6C8.87982 71.1 12.5798 77 15.2798 79.9L18.3798 83.2L11.6798 82.7C7.87982 82.5 3.77982 81.5 2.37982 80.6C-0.920177 78.4 -0.820177 79.6 2.87982 85.3C5.97982 90.2 12.9798 95.4 17.9798 96.5L20.8798 97.1L18.1798 102.3C16.0798 106.6 15.4798 109.6 14.7798 119.2C14.0798 128.7 13.4798 131.8 11.4798 135.9C10.0798 138.6 8.47982 141.1 7.87982 141.5C7.37982 141.8 6.87982 142.5 6.87982 142.9C6.87982 143.5 10.1798 143.3 20.3798 141.8C22.0798 141.5 22.3798 142.3 23.0798 147.3C23.4798 150.5 25.4798 157.2 27.5798 162.3C30.8798 170.3 31.3798 172.5 31.3798 179.6V187.7L36.1798 184.7C38.7798 183.1 41.6798 180.4 42.5798 178.6C44.1798 175.7 44.3798 175.6 44.6798 177.8C45.2798 181.6 42.8798 186.9 37.8798 192.9L32.9798 198.8L36.6798 199.4C43.3798 200.5 48.3798 200 52.3798 198C54.5798 196.9 56.3798 196 56.4798 196C56.5798 196 57.3798 198.1 58.3798 200.7C59.7798 204.4 63.3798 208.8 73.3798 219C80.6798 226.4 87.5798 234.4 88.7798 236.7C89.9798 239.1 91.0798 241 91.3798 241C92.6798 241 95.3798 235.1 95.9798 231.1L96.5798 226.5L98.2798 230.5C100.48 235.4 100.58 240.3 98.4798 243.6C96.7798 246 96.7798 246.1 99.5798 245.4C105.18 244.1 111.08 240.7 113.18 237.4C114.38 235.5 115.58 234 115.88 234C116.18 234 117.38 235.5 118.58 237.4C120.68 240.7 126.58 244.1 132.18 245.4C134.98 246.1 134.98 246 133.28 243.6C131.18 240.3 131.28 235.4 133.48 230.5L135.18 226.5L135.88 231C136.38 234.8 139.28 241 140.48 241C140.68 241 141.78 239.1 142.98 236.7C144.18 234.4 151.08 226.4 158.38 219C168.38 208.8 171.98 204.4 173.38 200.7C174.38 198.1 175.18 196 175.28 196C175.38 196 177.18 196.9 179.38 198C183.38 200 188.38 200.5 195.08 199.4L198.78 198.8L193.88 192.9C188.88 186.9 186.48 181.6 187.08 177.8C187.38 175.6 187.58 175.7 189.18 178.6C190.08 180.4 192.98 183.1 195.58 184.7L200.38 187.7V179.6C200.38 172.5 200.88 170.3 204.18 162.3C206.28 157.2 208.28 150.5 208.68 147.3C209.38 142.3 209.68 141.5 211.38 141.8C221.58 143.3 224.88 143.5 224.88 142.9C224.88 142.5 224.38 141.8 223.88 141.5C223.28 141.1 221.68 138.6 220.28 135.9C218.28 131.8 217.68 128.7 216.98 119.2C216.28 109.5 215.68 106.6 213.48 102.3L210.88 97.1L214.68 96C220.18 94.6 226.28 89.8 229.28 84.7C232.48 79.2 232.48 78.5 229.38 80.6C227.98 81.5 223.88 82.4 220.08 82.7L213.38 83.2L216.18 80.6C218.48 78.3 222.88 71.1 222.88 69.6C222.88 69.3 221.68 69.5 220.18 70.1C217.38 71.1 209.38 70.5 207.08 69.1C206.28 68.6 207.18 67.9 209.58 67.2C211.68 66.5 214.48 65.1 215.88 64L218.38 62H215.98C211.08 62 204.78 57.9 199.78 51.5C197.08 48 193.68 44.5 192.28 43.5L189.68 41.8L193.08 38.7C198.78 33.5 200.08 26.7 196.98 18.6L195.88 15.8L193.58 19C190.68 23.4 187.18 25.9 182.88 26.6C179.88 27.1 179.58 26.9 180.88 25.8C184.18 23 185.88 19.4 185.88 15.3C185.88 12.9 185.68 11 185.38 11C185.08 11 183.08 12.2 180.88 13.6C178.28 15.3 174.88 16.5 171.68 16.8L166.48 17.3L168.68 14.5C171.48 11 171.78 5.40005 169.18 6.50005C167.08 7.50005 163.98 7.80005 153.48 8.30005C145.58 8.70005 145.58 8.70005 147.78 6.90005L149.98 5.10005L147.48 4.40005C145.98 4.10005 142.98 4.10005 140.58 4.40005C137.28 4.90005 135.38 4.50005 131.48 2.50005C127.08 0.300045 125.28 4.51658e-05 115.98 4.51658e-05C106.78 4.51658e-05 104.68 0.400045 100.08 2.50005ZM127.18 6.50005C130.28 7.30005 130.58 8.40005 128.08 10.2C122.68 14.1 116.88 26.7 116.88 34.6C116.88 36.5 116.48 38 115.88 38C115.38 38 114.88 36.5 114.88 34.7C114.88 26.9 108.78 13.2 103.88 10.2C101.08 8.50005 101.38 7.40005 105.18 6.40005C108.88 5.30005 122.98 5.40005 127.18 6.50005ZM101.98 17.7C106.58 22.5 108.28 25.8 110.78 35.1C112.78 42.1 112.78 45 110.88 42C110.18 40.9 109.88 41.8 109.88 44.9C109.88 50.6 108.88 49.4 106.08 40.4C100.98 24.1 94.1798 18.8 74.6798 16.5C72.0798 16.1 68.9798 15.1 67.8798 14.2C65.8798 12.6 66.2798 12.5 75.5798 12.8C82.9798 13.1 86.7798 13.8 91.1798 15.6L96.9798 17.9L94.7798 14.4L92.5798 10.8L95.4798 12.3C97.0798 13.2 99.9798 15.6 101.98 17.7ZM136.88 14.5L134.78 17.9L140.58 15.6C144.98 13.8 148.78 13.1 156.18 12.8C165.48 12.5 165.88 12.6 163.88 14.2C162.78 15.1 159.68 16.2 157.08 16.5C137.18 18.9 130.88 23.8 125.48 41C122.68 49.7 121.88 50.6 121.88 44.9C121.88 41.8 121.58 40.9 120.88 42C118.98 45 118.98 42.1 120.88 35.1C123.58 25.7 125.78 21.3 130.58 16.9C133.78 13.8 137.48 11.1 138.68 11C138.88 11 138.08 12.6 136.88 14.5ZM71.5798 20.8C78.9798 20.7 84.7798 21.1 87.0798 21.9C91.7798 23.5 96.8798 29.3 99.2798 35.9C101.28 41.5 100.98 45 98.8798 41C96.0798 35.6 90.6798 30.1 85.6798 27.6C80.9798 25.2 79.3798 25 68.3798 25C56.3798 25 56.2798 25 52.5798 21.9C50.5798 20.2 48.8798 18.5 48.8798 18.1C48.8798 17.7 51.2798 18.1 54.2798 19.1C58.5798 20.6 62.3798 20.9 71.5798 20.8ZM179.48 21.6L175.58 25H163.38C152.38 25 150.78 25.2 146.08 27.6C141.08 30.1 135.68 35.6 132.88 41C130.78 45 130.48 41.5 132.48 35.9C134.88 29.3 139.98 23.5 144.68 21.9C146.98 21.1 152.88 20.7 160.38 20.8C169.48 20.9 173.58 20.5 177.38 19.2C180.18 18.2 182.58 17.6 182.88 17.8C183.18 18 181.58 19.7 179.48 21.6ZM42.8798 29.1C44.6798 30.1 49.6798 30.5 61.3798 30.5C75.0798 30.5 77.8798 30.8 80.8798 32.4C84.3798 34.2 92.8798 41.8 92.8798 43.1C92.8798 43.5 89.7798 42.2 85.8798 40.2C77.3798 35.9 71.1798 35.2 60.4798 37.4C50.7798 39.4 48.4798 39.4 44.4798 37.5C41.2798 36 37.8798 31.1 36.3798 26L35.6798 23.5L37.9798 25.6C39.2798 26.8 41.4798 28.4 42.8798 29.1ZM194.38 28.6C192.18 33.9 188.18 37.9 184.38 38.6C182.68 38.9 177.08 38.4 171.98 37.5C159.98 35.3 154.38 35.9 145.78 40.3C141.98 42.2 138.88 43.5 138.88 43.1C138.88 41.8 147.38 34.2 150.88 32.4C153.88 30.8 156.68 30.5 170.38 30.5C186.98 30.5 190.28 29.8 193.88 25.5C195.88 23.1 196.18 24.4 194.38 28.6ZM78.6798 43.2C83.9798 44.5 84.0798 46 78.8798 46C73.8798 46 65.3798 49.2 60.3798 52.9C58.2798 54.4 53.7798 59.7 50.3798 64.6C40.7798 78.6 33.6798 82.3 23.8798 78.4C19.0798 76.5 18.7798 75.6 22.8798 75.3C29.9798 74.8 40.7798 66 48.3798 54.5C54.3798 45.4 57.1798 43.2 64.7798 42.1C69.7798 41.4 72.1798 41.5 78.6798 43.2ZM173.58 44C176.98 45.5 178.78 47.5 183.48 54.5C191.08 66.1 201.78 74.8 208.88 75.3C212.98 75.6 212.68 76.5 207.88 78.4C198.08 82.3 190.98 78.6 181.38 64.6C177.98 59.7 173.48 54.4 171.38 52.9C166.38 49.2 157.88 46 152.88 46C147.68 46 147.78 44.5 153.18 43.2C161.88 40.9 166.68 41.1 173.58 44ZM42.8798 53.1C36.5798 61.9 33.6798 63.9 27.8798 63.9H24.3798L26.8798 62.3C28.2798 61.4 32.5798 57.3 36.3798 53.3C42.3798 47.1 47.4798 43.4 48.6798 44.5C48.8798 44.7 46.2798 48.6 42.8798 53.1ZM195.38 53.3C199.28 57.3 203.48 61.4 204.88 62.3L207.38 63.9H204.08C198.38 64 194.68 61.4 188.88 53.3C182.08 43.8 182.08 43.8 185.58 45C187.08 45.6 191.58 49.3 195.38 53.3ZM76.3798 54.2C70.7798 58.3 65.9798 64 59.8798 74C56.4798 79.5 51.7798 85.6 49.5798 87.5C45.1798 91.3 37.7798 94 31.7798 94C27.8798 94 17.0798 90.9 12.8798 88.6C10.6798 87.3 11.3798 87.2 18.9798 87.7C35.1798 88.7 42.6798 84.4 54.6798 67.3C62.5798 56.1 67.9798 52.3 76.3798 52.1H79.3798L76.3798 54.2ZM160.78 53C166.68 54.7 170.68 58.2 177.08 67.3C189.08 84.4 196.58 88.7 212.78 87.7C220.38 87.2 221.08 87.3 218.88 88.6C214.68 90.9 203.88 94 199.98 94C193.98 94 186.58 91.3 182.18 87.5C179.98 85.6 175.28 79.5 171.88 74C165.78 64 160.98 58.3 155.38 54.2L152.38 52.1L154.88 52C156.28 52 158.88 52.4 160.78 53ZM105.68 56C108.88 58 114.88 66.2 114.88 68.7C114.88 69.4 115.38 70 115.88 70C116.48 70 116.88 69.4 116.88 68.7C116.88 66.2 122.88 58 126.08 56C132.18 52.2 141.08 55.2 149.08 63.8C153.38 68.4 154.78 71.4 156.48 79.6L156.98 82.5H147.48C140.18 82.5 137.88 82.2 137.68 81.1C137.48 80.1 136.88 80.2 135.08 81.7C133.48 82.9 132.18 85.7 131.28 89.9L129.78 96.3L132.78 99.4C136.48 103.3 137.88 106.8 137.88 112.8C137.88 115.4 138.78 119.5 139.88 121.9C142.28 127 142.38 129.9 140.48 134.4C138.48 139.3 135.38 141 128.58 141C120.68 141 116.88 139 116.88 134.7C116.88 130.4 118.88 127.8 124.38 124.5C126.88 123.1 129.38 120.7 129.98 119.4C131.48 115.4 131.08 114.6 128.88 117.1C127.88 118.4 126.98 119 126.88 118.3C126.88 117.5 123.68 117.1 115.88 117.1C108.08 117.1 104.88 117.5 104.88 118.3C104.78 119 103.88 118.4 102.88 117.1C100.68 114.6 100.28 115.4 101.78 119.4C102.38 120.7 104.88 123.1 107.38 124.5C112.88 127.8 114.88 130.4 114.88 134.7C114.88 139 111.08 141 103.18 141C96.3798 141 93.2798 139.3 91.2798 134.4C89.3798 129.8 89.4798 126.6 91.8798 122C93.0798 119.6 93.8798 116.1 93.8798 113.1C93.8798 106.9 95.1798 103.3 98.9798 99.4L101.98 96.3L100.48 89.9C99.5798 85.7 98.2798 82.9 96.6798 81.7C94.8798 80.2 94.2798 80.1 94.0798 81.1C93.8798 82.2 91.5798 82.5 84.2798 82.5H74.7798L75.2798 79.6C76.9798 71.4 78.3798 68.4 82.6798 63.8C90.9798 54.9 99.2798 52.1 105.68 56ZM86.0798 88.5C88.0798 90.2 90.2798 91 92.8798 91C98.0798 91 99.0798 93.8 95.4798 98C93.9798 99.9 92.7798 102.8 92.3798 105.8C91.3798 113.5 90.7798 115.9 89.8798 116.5C88.7798 117.2 78.4798 103.6 76.3798 98.7C74.4798 94 74.4798 93.2 76.8798 89.2C79.2798 85.3 81.9798 85.1 86.0798 88.5ZM155.18 89.8C156.88 92.7 156.98 93.7 155.98 97C154.68 101.5 143.28 117.3 141.88 116.5C140.98 115.9 140.38 113.5 139.38 105.8C138.98 102.8 137.78 99.9 136.28 98C132.68 93.8 133.68 91 138.88 91C141.58 91 143.58 90.3 145.58 88.5C149.38 85.1 152.78 85.6 155.18 89.8ZM62.9798 91.7C61.9798 93.6 57.4798 97.8 48.4798 105.3C42.8798 110 39.0798 116.2 36.6798 124.9C34.3798 133.3 34.3798 137.8 36.9798 152.2C38.5798 160.9 38.8798 165.7 38.3798 170.5C37.5798 178.6 35.8798 179 35.8798 171.1C35.8798 166.8 34.9798 162.8 32.3798 156.2C21.0798 126.8 28.4798 104.8 52.9798 95.9C56.0798 94.8 59.6798 92.8 60.9798 91.5C63.7798 88.9 64.4798 89 62.9798 91.7ZM171.28 91.9C172.18 92.9 175.58 94.7 178.68 95.9C181.88 97 186.58 99.4 189.18 101.1C204.78 111.4 208.88 132.1 199.78 154.9C197.78 159.8 196.48 165.1 196.18 169.7C195.88 173.7 195.28 177 194.78 177C194.38 177 193.68 174.4 193.28 171.2C192.78 167.1 193.18 161.9 194.78 152.5C197.28 137.2 197.38 133.4 195.38 125.5C193.18 117.1 189.08 110.3 183.48 105.6C174.58 98.2 169.78 93.7 168.78 91.8C167.48 89.4 169.08 89.5 171.28 91.9ZM35.8798 98.8C35.8798 99 34.2798 101.1 32.3798 103.4C27.9798 108.8 25.1798 115.1 24.3798 121.5C23.1798 131.5 22.7798 132.8 20.3798 135.4C17.2798 138.8 15.2798 138.8 17.4798 135.4C18.5798 133.8 19.4798 129.4 19.9798 123.3C21.3798 106.7 25.4798 98.5 32.2798 98.5C34.2798 98.5 35.8798 98.6 35.8798 98.8ZM204.88 100.5C208.08 103.4 210.88 112.5 211.78 123C212.28 129.4 213.18 133.8 214.28 135.4C216.48 138.8 214.48 138.8 211.38 135.4C208.88 132.7 208.38 131.1 207.38 122C206.48 115.1 203.88 108.9 199.38 103.4C197.48 101.1 195.88 99 195.88 98.8C195.88 97.7 203.28 99 204.88 100.5ZM65.8798 104.3C65.8798 114.3 62.2798 122.8 52.9798 135.1C48.8798 140.6 48.1798 142.8 45.9798 157.4C44.7798 165.6 42.8798 168.6 42.8798 162.2C42.8798 159.9 42.1798 153.9 41.2798 148.8C39.4798 138.6 40.0798 132.9 43.8798 122.5C45.7798 117.5 47.5798 115.1 55.1798 107.7C60.0798 102.9 64.5798 99 64.9798 99C65.4798 99 65.8798 101.4 65.8798 104.3ZM174.58 105.7C182.88 113 186.18 117.7 188.88 125.5C191.68 133.7 192.08 139.7 190.48 149C189.58 153.7 188.88 159.5 188.88 161.9C188.88 168.5 186.98 165.8 185.78 157.4C183.58 142.8 182.88 140.6 178.78 135.1C172.48 126.7 169.18 121 167.48 115.1C165.88 109.7 165.28 99 166.48 99C166.88 99 170.48 102 174.58 105.7ZM78.3798 128.4C79.6798 136.9 77.4798 142.3 68.8798 151.5C61.4798 159.5 60.0798 162.2 58.7798 171.7C57.5798 180.7 55.9798 184.9 52.2798 189.3C47.9798 194.4 46.5798 194.6 49.0798 189.8C50.9798 186.2 51.2798 184.4 50.8798 177C49.9798 155.8 50.7798 153.5 63.3798 143C71.6798 136.1 75.8798 130.4 75.8798 126C75.8798 122.2 77.7798 124 78.3798 128.4ZM155.88 126C155.88 130.4 160.08 136.1 168.38 143C179.88 152.6 181.38 155.6 180.98 168C180.38 183.5 180.48 185.7 182.78 190C185.18 194.7 183.68 194.4 179.48 189.3C175.78 184.9 174.18 180.7 172.98 171.7C171.68 162.1 170.28 159.5 162.68 151.3C153.98 142 151.78 136 153.48 127.1C154.18 123.6 155.88 122.9 155.88 126ZM118.28 142.5C119.58 143.5 122.58 144 126.48 144C135.08 144 135.88 144.5 135.88 149.2C135.88 152.1 135.28 153.7 133.28 155.5C130.38 158.2 128.88 158.7 128.88 156.9C128.88 156.4 127.88 156.6 126.68 157.4C125.48 158.3 123.58 159 122.58 159C121.58 159 119.68 160.1 118.38 161.5L115.88 163.9L113.38 161.5C112.08 160.1 110.18 159 109.18 159C108.18 159 106.28 158.3 105.08 157.4C103.88 156.6 102.88 156.4 102.88 156.9C102.88 158.7 101.38 158.2 98.4798 155.5C96.4798 153.7 95.8798 152.1 95.8798 149.2C95.8798 144.5 96.6798 144 105.28 144C109.18 144 112.18 143.5 113.48 142.5C114.48 141.7 115.58 141.1 115.88 141.1C116.18 141.1 117.28 141.7 118.28 142.5ZM83.8798 146.8C83.8798 149.5 82.1798 157.4 79.8798 164.9C77.6798 172.2 75.8798 180.3 75.8798 182.9C75.8798 189.8 78.2798 197.8 83.2798 207.7C86.7798 214.9 92.3798 230 91.4798 230C91.2798 230 88.1798 225.9 84.4798 221C80.7798 216 76.3798 211 74.7798 209.8C68.4798 205.1 62.8798 192.4 62.8798 182.7C62.8798 174.1 65.2798 168.3 72.8798 158.2C76.6798 153 80.3798 147.3 81.0798 145.4C82.7798 140.6 83.8798 141.2 83.8798 146.8ZM159.58 159.3C162.78 163.5 166.28 169.2 167.18 171.8C171.48 183.9 166.38 202.8 156.98 209.8C155.38 211 150.98 216 147.28 221C143.58 225.9 140.48 230 140.28 230C139.38 230 144.88 214.9 148.38 208C157.18 190.4 157.68 184.2 151.88 164.9C146.68 147.5 146.38 136.1 151.38 146.8C152.68 149.4 156.28 155 159.58 159.3ZM91.5798 160.9C92.5798 163.2 93.4798 170 93.9798 180C94.8798 198 96.3798 204.1 102.38 216.6C106.18 224.3 106.88 226.7 106.88 231.6L106.78 237.5L104.98 232.3C103.98 229.4 100.28 222.6 96.6798 217.3C88.6798 205.4 86.2798 200.8 84.3798 193.3C81.8798 183.7 82.4798 175.3 86.4798 161.2C88.1798 155.4 89.2798 155.3 91.5798 160.9ZM146.78 166.9C149.28 176.9 149.48 185.4 147.38 193.3C145.48 200.8 143.08 205.4 135.08 217.3C131.48 222.6 127.78 229.4 126.78 232.3L124.98 237.5L124.88 231.6C124.88 226.7 125.58 224.3 129.38 216.6C135.48 204.1 136.88 197.9 137.88 180C138.58 165.3 139.58 160.3 142.08 157.2C143.58 155.4 144.18 156.5 146.78 166.9ZM110.28 173C112.08 176.4 113.08 180 113.48 184.7L114.08 191.5L112.08 188.5C111.08 186.8 108.88 181.4 107.18 176.5C105.58 171.5 103.88 166.6 103.38 165.5C101.78 161.6 107.38 167.8 110.28 173ZM127.58 167.7C126.78 169.2 125.18 173.8 123.98 177.8C122.78 181.8 120.88 186.5 119.78 188.3L117.68 191.5L118.28 184.8C118.78 177.7 120.98 172.4 125.48 167.1C128.58 163.4 129.58 163.6 127.58 167.7ZM102.48 176.3C103.38 179.1 106.18 185.8 108.78 190.9C113.38 200.4 113.38 200.4 113.28 210.4C113.18 216 112.68 221.6 112.18 223C111.18 225.4 111.08 225.3 110.38 221C109.98 218.6 107.38 211.4 104.58 205.1C99.6798 193.8 99.5798 193.3 99.0798 181.6C98.5798 168.6 99.4798 167.1 102.48 176.3ZM132.68 181.8C132.18 193.2 132.08 193.8 127.18 205.1C124.38 211.4 121.78 218.6 121.38 221C120.68 225.3 120.58 225.4 119.58 223C119.08 221.6 118.58 216 118.48 210.4C118.38 200.4 118.38 200.4 122.98 190.9C125.58 185.8 128.18 179.7 128.88 177.5C132.28 166.6 133.28 167.7 132.68 181.8Z" fill="#64FFDA"/>
</svg>
