<svg width="196" height="168" viewBox="0 0 196 168" fill="none" xmlns="http://www.w3.org/2000/svg">
<g filter="url(#filter0_d_43_311)">
<path d="M118.045 32.6138L135.152 61.5555L126.545 61.8782C116.431 62.201 118.475 64.03 106.748 44.0183C99.3244 31.3228 98.2485 29.8165 96.9575 31.5379C96.2043 32.5062 91.9008 39.9299 87.382 47.8916L79.0976 62.4162L82.7556 69.1943C84.6923 72.96 86.9516 76.7256 87.5972 77.6939C88.6731 79.2002 92.6539 79.4153 117.184 79.6305L145.48 79.8457L154.733 95.9842C159.897 104.807 170.226 122.774 177.65 135.792L191.314 159.462L153.98 159.785C133.43 159.892 116.431 159.677 116.324 159.247C116.108 158.709 110.406 148.488 103.52 136.438C96.6347 124.28 90.8249 113.736 90.5021 112.983C90.0717 111.907 91.9008 111.585 98.5713 111.585H107.286L116.646 128.261L126.114 144.937H145.803H165.492L159.79 135.47C156.67 130.305 150.107 119.008 145.158 110.294L136.228 94.3703H107.932H79.6355L76.4078 89.206C70.06 78.985 61.1301 63.2769 61.1301 62.201C61.1301 61.1251 94.5905 3.99498 97.0651 0.87488C98.4637 -0.954144 96.8499 -3.32112 118.045 32.6138ZM69.4145 112.123C75.3319 122.128 84.0467 137.083 88.8882 145.153L97.4954 160H88.1351H78.7748L73.0726 150.102C59.4087 126.432 54.2444 117.287 52.7381 114.49C51.985 112.876 50.9091 111.8 50.5863 112.015C50.156 112.23 43.8082 123.097 36.3845 136.223L22.9358 159.892L13.4679 160H4L5.29107 157.525C6.79733 154.836 18.2018 135.254 37.4604 102.655L50.6939 80.1685L54.6747 87.0542C56.8265 90.8198 63.4971 102.009 69.4145 112.123Z" fill="#64FFDA"/>
</g>
<defs>
<filter id="filter0_d_43_311" x="0" y="0" width="195.313" height="168" filterUnits="userSpaceOnUse" color-interpolation-filters="sRGB">
<feFlood flood-opacity="0" result="BackgroundImageFix"/>
<feColorMatrix in="SourceAlpha" type="matrix" values="0 0 0 0 0 0 0 0 0 0 0 0 0 0 0 0 0 0 127 0" result="hardAlpha"/>
<feOffset dy="4"/>
<feGaussianBlur stdDeviation="2"/>
<feComposite in2="hardAlpha" operator="out"/>
<feColorMatrix type="matrix" values="0 0 0 0 0 0 0 0 0 0 0 0 0 0 0 0 0 0 0.25 0"/>
<feBlend mode="normal" in2="BackgroundImageFix" result="effect1_dropShadow_43_311"/>
<feBlend mode="normal" in="SourceGraphic" in2="effect1_dropShadow_43_311" result="shape"/>
</filter>
</defs>
</svg>
