<svg width="186" height="160" viewBox="0 0 186 160" fill="none" xmlns="http://www.w3.org/2000/svg">
<path d="M88.2388 7.34329C85.9104 11.3433 80.7761 20.2388 76.8358 27.1642C61.4925 53.6716 33.5522 102.149 13.3731 137.015C7.34328 147.522 1.85075 157.015 1.19403 158.03L0 160H13.3731H26.6866L28.2388 157.134C29.1343 155.582 35.6418 144.239 42.806 131.94C49.9104 119.642 64.1194 95.1045 74.2687 77.4328C84.4776 59.7612 92.9552 45.4925 93.194 45.6716C93.3731 45.8507 96.3582 50.9254 99.8209 56.8955L106.09 67.7612L119.104 67.9403C126.209 68 132.06 67.9403 132.06 67.7015C132.06 67.403 129.134 62.3284 103.582 18.0299C97.791 8.11941 92.9552 3.72529e-06 92.7164 3.72529e-06C92.5373 3.72529e-06 90.5075 3.34329 88.2388 7.34329Z" fill="#64FFDA"/>
<path d="M92.8357 92.0597C92.5968 92.4776 89.6715 97.5522 86.3282 103.284L80.2983 113.731L102.149 114.03C134.149 114.507 133.015 113.791 149.612 142.507L159.701 160H172.776H185.791L184.06 156.955C151.94 100.657 151.045 99.3433 141.97 94.9254C139.283 93.6119 135.701 92.2388 133.91 91.9403C128.955 91.0448 93.4327 91.1642 92.8357 92.0597Z" fill="#64FFDA"/>
<path d="M60.4181 148.119C56.9554 154.09 54.0897 159.224 53.9703 159.463C53.8509 159.761 71.5226 160 93.2539 160C128.239 160 132.717 159.881 132.418 159.104C131.403 156.358 124.896 146.149 122.687 143.821C121.135 142.149 118.627 140.358 116.358 139.343L112.657 137.612L89.6718 137.433L66.6867 137.254L60.4181 148.119Z" fill="#64FFDA"/>
</svg>
